<svg width="206" height="31" viewBox="0 0 206 31" fill="none" xmlns="http://www.w3.org/2000/svg">
<g clip-path="url(#clip0_2519_76898)">
<mask id="mask0_2519_76898" style="mask-type:luminance" maskUnits="userSpaceOnUse" x="8" y="9" width="9" height="13">
<path d="M8.80518 9.24829H16.219V21.8504H8.80518V9.24829Z" fill="white"/>
</mask>
<g mask="url(#mask0_2519_76898)">
<path d="M14.8781 18.8465H11.5006V12.2531H14.8849C15.6421 12.2531 16.2266 11.5566 16.2266 10.7473C16.2181 9.92344 15.6344 9.24829 14.8781 9.24829H8.80518V21.8513H14.8781C15.6344 21.8513 16.2181 21.1539 16.2181 20.3446C16.2181 19.5131 15.6344 18.8465 14.8781 18.8465Z" fill="#FFCF25"/>
</g>
<path d="M8.96237 30.0764H0.568359V1.01953H15.9275C21.6534 1.03406 23.8762 4.35423 24.6847 6.34207C25.3855 8.04275 25.4667 9.94854 24.9274 11.6766C24.3343 13.5824 23.1891 14.7797 22.3003 15.542C23.2028 16.3043 24.3343 17.5153 24.9274 19.4074C25.4657 21.1545 25.3849 23.0338 24.6984 24.7282C23.8899 26.7152 21.6671 30.0499 15.9412 30.0636C13.4482 30.0773 11.0639 30.0764 8.96237 30.0764ZM4.31328 27.0827H15.9138C18.9725 27.0827 20.9936 25.9119 21.9363 23.5993C22.3678 22.5617 22.4204 21.4054 22.085 20.333C21.5756 18.7271 20.5082 17.9375 19.7809 17.3657C19.5675 17.2069 19.3648 17.0342 19.1742 16.8487C18.8308 16.5004 18.6384 16.031 18.6384 15.542C18.6384 15.0529 18.8308 14.5836 19.1742 14.2353C19.3494 14.0584 19.5519 13.9088 19.7946 13.7182C20.5219 13.1602 21.5995 12.3303 22.085 10.7784C22.4202 9.69662 22.3676 8.53183 21.9363 7.48469C20.9936 5.18492 18.9725 4.01495 15.9138 4.01495H3.51934V27.0682L4.31413 27.0818L4.31328 27.0827Z" fill="#FFCF25"/>
<path d="M31.5951 29.5544V17.6394H36.6732C38.1945 17.6394 39.2969 17.8984 39.9806 18.4171C40.6643 18.9367 41.0061 19.7161 41.0061 20.7545C41.0061 21.0963 40.9386 21.4031 40.8044 21.6732C40.6866 21.9335 40.5234 22.1708 40.3224 22.374C40.1361 22.5705 39.9242 22.7372 39.6858 22.8722C39.4473 22.997 39.22 23.0859 39.0021 23.1371V23.1995C39.3755 23.2619 39.7174 23.3704 40.0276 23.5268C40.3489 23.6721 40.6233 23.8636 40.8506 24.1028C41.089 24.3421 41.2694 24.6267 41.3941 24.9592C41.5283 25.2814 41.5958 25.6497 41.5958 26.065C41.5958 26.5949 41.4933 27.0726 41.2856 27.4982C41.0732 27.9305 40.7652 28.3087 40.3848 28.6041C40.002 28.9049 39.5251 29.1382 38.9559 29.3049C38.397 29.4707 37.7595 29.5536 37.0459 29.5536L31.5951 29.5544ZM36.3468 22.5141C36.8647 22.5141 37.2578 22.3996 37.527 22.1714C37.7962 21.9432 37.9312 21.5954 37.9312 21.1279C37.9312 20.681 37.7962 20.3391 37.527 20.0998C37.2578 19.8605 36.8647 19.7418 36.3476 19.7418H34.7478V22.5141H36.3468ZM36.7348 27.3735C37.2629 27.3735 37.6723 27.2641 37.962 27.0461C38.262 26.818 38.4124 26.4231 38.4124 25.8625C38.4124 25.4061 38.262 25.0583 37.962 24.8199C37.6714 24.5806 37.2629 24.4609 36.7348 24.4609H34.7478V27.3735H36.7348ZM42.9991 23.6354C42.9991 22.7013 43.1281 21.8544 43.3871 21.0972C43.6563 20.3391 44.0392 19.6896 44.5365 19.1495C45.0417 18.6039 45.6625 18.1782 46.3535 17.9035C47.0679 17.6129 47.8747 17.4676 48.7763 17.4676C49.7181 17.4676 50.5462 17.6129 51.2606 17.9035C51.9854 18.1838 52.5853 18.5889 53.0622 19.1187C53.5382 19.6486 53.8954 20.2973 54.1339 21.0655C54.3817 21.8236 54.5065 22.6808 54.5065 23.6354C54.5065 24.5703 54.3774 25.4215 54.1185 26.1898C53.8698 26.9479 53.4972 27.5965 52.9998 28.1366C52.4987 28.6762 51.8831 29.0967 51.1983 29.3673C50.4949 29.6578 49.6873 29.8031 48.7763 29.8031C47.802 29.8031 46.9534 29.663 46.2295 29.3826C45.504 29.0921 44.904 28.6819 44.428 28.152C43.9511 27.6127 43.5939 26.9641 43.3563 26.2052C43.1179 25.4472 42.9991 24.59 42.9991 23.6354ZM48.76 27.5606C50.3137 27.5606 51.0897 26.2522 51.0897 23.6354C51.0897 22.3167 50.8727 21.3305 50.4377 20.6758C50.0027 20.0118 49.4437 19.6794 48.76 19.6794C47.2072 19.6794 46.4312 20.998 46.4312 23.6362C46.4312 24.9643 46.6124 25.9514 46.9748 26.5949C47.3371 27.2384 47.9311 27.5606 48.76 27.5606ZM56.4054 17.6394H59.5581V29.5544H56.4054V17.6394ZM67.6359 20.8946C67.6131 20.5886 67.4808 20.3009 67.2633 20.0845C67.0351 19.8349 66.689 19.7101 66.2224 19.7101C65.8087 19.7101 65.472 19.8093 65.2139 20.0067C64.9541 20.1938 64.8251 20.4579 64.8251 20.8015C64.8251 21.1228 64.9234 21.3826 65.1199 21.5792C65.3165 21.7672 65.6686 21.9065 66.1762 21.9996L68.0393 22.3423C69.0443 22.5304 69.8152 22.9038 70.3536 23.4644C70.9022 24.0148 71.1766 24.7412 71.1766 25.6446C71.1766 26.33 71.0629 26.9325 70.8347 27.4512C70.614 27.9612 70.2729 28.4102 69.8408 28.7596C69.4169 29.1023 68.8939 29.3621 68.2726 29.5382C67.6513 29.7151 66.9479 29.8031 66.1608 29.8031C64.6388 29.8031 63.4534 29.5074 62.6039 28.9152C61.7664 28.3238 61.3152 27.3888 61.2536 26.112H64.5302C64.5815 26.5684 64.7524 26.9273 65.043 27.1863C65.3421 27.4358 65.7412 27.5606 66.2386 27.5606C66.7659 27.5606 67.1753 27.441 67.465 27.2017C67.7555 26.9632 67.9 26.6675 67.9 26.3146C67.9 25.9514 67.7863 25.6813 67.5581 25.5044C67.3411 25.3173 66.9522 25.172 66.3933 25.0686L64.561 24.7096C64.1678 24.6372 63.7862 24.5116 63.4269 24.3362C63.0763 24.1604 62.7565 23.929 62.48 23.6508C62.1963 23.364 61.9698 23.0258 61.8126 22.6543C61.6468 22.2594 61.5639 21.8031 61.5639 21.2835C61.5639 20.7331 61.6622 20.2238 61.8587 19.7571C62.063 19.2937 62.3712 18.8834 62.7595 18.5581C63.1526 18.2154 63.6397 17.9513 64.2191 17.7633C64.7994 17.5668 65.472 17.4676 66.2386 17.4676C67.0667 17.4676 67.7709 17.5556 68.3495 17.7326C68.9306 17.9086 69.4007 18.153 69.7639 18.465C70.1262 18.7658 70.3903 19.129 70.5553 19.5546C70.7334 19.9799 70.8335 20.4338 70.851 20.8946H67.6359ZM74.1959 22.4987H78.7715V24.7412H74.1959V22.4987ZM81.972 17.6394H86.2579C87.1689 17.6394 87.9928 17.7531 88.7278 17.9812C89.473 18.2103 90.1097 18.5632 90.6378 19.041C91.166 19.5187 91.5745 20.1263 91.8642 20.863C92.1548 21.5894 92.2992 22.4526 92.2992 23.4482C92.2992 24.4558 92.1548 25.3437 91.8642 26.112C91.5745 26.8701 91.1608 27.5034 90.6224 28.0118C90.0773 28.5311 89.4251 28.9246 88.7115 29.1647C87.9766 29.4245 87.1587 29.5544 86.2579 29.5544H81.972V17.6394ZM86.0562 27.2641C86.5015 27.2641 86.9049 27.2025 87.2681 27.0778C87.6214 26.959 87.9374 26.7495 88.1842 26.4701C88.4321 26.1796 88.6235 25.795 88.7585 25.3173C88.8927 24.8301 88.9602 24.2276 88.9602 23.5106C88.9602 22.8252 88.8927 22.2543 88.7585 21.798C88.6235 21.3305 88.4321 20.9562 88.1842 20.6758C87.9509 20.399 87.6439 20.194 87.2988 20.0845C86.9245 19.9544 86.5303 19.891 86.134 19.8973H85.1247V27.2641H86.0562ZM94.4622 17.6394L102.533 17.5924V19.8973L97.6149 19.9443V22.5141H102.533V24.7566H97.6149V27.2803H102.584V29.5536H94.4622V17.6394ZM105.558 22.4987H110.133V24.7412H105.558V22.4987ZM113.059 29.5544V17.6394H118.137C119.659 17.6394 120.761 17.8984 121.445 18.4171C122.128 18.9367 122.47 19.7161 122.47 20.7545C122.47 21.0963 122.403 21.4031 122.268 21.6732C122.144 21.9432 121.983 22.1774 121.787 22.374C121.6 22.5705 121.388 22.7372 121.15 22.8722C120.912 22.997 120.683 23.0859 120.466 23.1371V23.1995C120.839 23.2619 121.181 23.3704 121.491 23.5268C121.812 23.6721 122.087 23.8636 122.315 24.1028C122.553 24.3421 122.734 24.6267 122.858 24.9592C122.993 25.2814 123.06 25.6497 123.06 26.065C123.06 26.5949 122.957 27.0726 122.749 27.4982C122.542 27.9238 122.242 28.293 121.848 28.6041C121.465 28.9049 120.989 29.1382 120.42 29.3049C119.86 29.4707 119.224 29.5536 118.509 29.5536L113.059 29.5544ZM117.811 22.5141C118.328 22.5141 118.722 22.3996 118.991 22.1714C119.261 21.9432 119.395 21.5954 119.395 21.1279C119.395 20.681 119.261 20.3391 118.991 20.0998C118.722 19.8605 118.328 19.7418 117.811 19.7418H116.211V22.5141H117.811ZM118.199 27.3735C118.727 27.3735 119.136 27.2641 119.426 27.0461C119.726 26.818 119.877 26.4231 119.877 25.8625C119.877 25.4061 119.726 25.0583 119.426 24.8199C119.136 24.5806 118.727 24.4609 118.199 24.4609H116.211V27.3735H118.199ZM124.463 23.6354C124.463 22.7013 124.592 21.8544 124.851 21.0972C125.12 20.3391 125.504 19.6896 126 19.1495C126.505 18.604 127.126 18.1782 127.817 17.9035C128.531 17.6129 129.339 17.4676 130.24 17.4676C131.182 17.4676 132.011 17.6129 132.725 17.9035C133.45 18.1838 134.05 18.5889 134.526 19.1187C135.003 19.6486 135.36 20.2973 135.597 21.0655C135.846 21.8236 135.97 22.6808 135.97 23.6354C135.97 24.5703 135.841 25.4215 135.582 26.1898C135.333 26.9479 134.961 27.5965 134.464 28.1366C133.977 28.6665 133.377 29.0767 132.663 29.3673C131.958 29.6578 131.151 29.8031 130.24 29.8031C129.266 29.8031 128.418 29.663 127.693 29.3826C126.968 29.0921 126.368 28.6819 125.891 28.152C125.415 27.6127 125.058 26.9641 124.82 26.2052C124.582 25.4472 124.463 24.59 124.463 23.6354ZM130.224 27.5606C131.777 27.5606 132.554 26.2522 132.554 23.6354C132.554 22.3167 132.336 21.3305 131.901 20.6758C131.467 20.0118 130.907 19.6794 130.224 19.6794C128.672 19.6794 127.895 20.998 127.895 23.6362C127.895 24.9643 128.076 25.9514 128.438 26.5949C128.801 27.2384 129.396 27.5606 130.224 27.5606ZM137.777 17.6394H140.928L140.913 24.6472C140.913 25.0113 140.929 25.3796 140.96 25.754C141.001 26.1274 141.11 26.4342 141.286 26.6727C141.473 26.912 141.69 27.0829 141.939 27.1863C142.186 27.2906 142.477 27.3427 142.808 27.3427C143.532 27.3427 144.066 27.1188 144.408 26.6727C144.573 26.4334 144.667 26.1274 144.687 25.754C144.708 25.3796 144.718 25.0113 144.718 24.6481V17.6394H147.824V25.2865C147.824 26.0445 147.7 26.7094 147.452 27.2803C147.227 27.8227 146.875 28.3032 146.426 28.6819C145.991 29.0553 145.464 29.3356 144.843 29.5228C144.221 29.71 143.532 29.8031 142.777 29.8031C142.021 29.8031 141.333 29.7091 140.711 29.5228C140.136 29.3549 139.602 29.0684 139.143 28.6819C138.702 28.2998 138.356 27.8198 138.134 27.2803C137.895 26.7094 137.777 26.0445 137.777 25.2865V17.6394ZM149.964 17.6394H153.116V27.1863H157.822V29.5536H149.964V17.6394ZM158.835 23.6354C158.835 22.7013 158.965 21.8544 159.223 21.0972C159.492 20.3391 159.876 19.6896 160.373 19.1495C160.878 18.604 161.499 18.1782 162.189 17.9035C162.904 17.6129 163.712 17.4676 164.612 17.4676C165.554 17.4676 166.383 17.6129 167.097 17.9035C167.821 18.1838 168.422 18.5889 168.898 19.1187C169.375 19.6486 169.732 20.2973 169.97 21.0655C170.219 21.8236 170.343 22.6808 170.343 23.6354C170.343 24.5703 170.213 25.4215 169.955 26.1898C169.706 26.9479 169.333 27.5965 168.837 28.1366C168.35 28.6665 167.75 29.0767 167.035 29.3673C166.331 29.6578 165.523 29.8031 164.612 29.8031C163.639 29.8031 162.79 29.663 162.066 29.3826C161.341 29.0921 160.74 28.6819 160.264 28.152C159.788 27.6127 159.431 26.9641 159.192 26.2052C158.954 25.4472 158.835 24.59 158.835 23.6354ZM164.597 27.5606C166.15 27.5606 166.927 26.2522 166.927 23.6354C166.927 22.3167 166.709 21.3305 166.274 20.6758C165.84 20.0118 165.28 19.6794 164.597 19.6794C163.044 19.6794 162.267 20.998 162.267 23.6362C162.267 24.9643 162.448 25.9514 162.811 26.5949C163.173 27.2384 163.769 27.5606 164.597 27.5606ZM177.722 19.6794C176.987 19.6794 176.402 20.0016 175.968 20.6451C175.543 21.2783 175.331 22.2757 175.331 23.6362C175.331 24.3934 175.387 25.0267 175.501 25.536C175.626 26.0343 175.797 26.4394 176.014 26.7504C176.232 27.0513 176.49 27.27 176.791 27.4042C177.091 27.529 177.422 27.5922 177.784 27.5922C178.437 27.5922 178.949 27.3991 179.322 27.0154C179.695 26.6205 179.922 26.0804 180.005 25.3959L180.036 25.1463H177.567V23.0124H182.94V29.5544H180.502V27.9965H180.455C180.163 28.5387 179.728 28.9908 179.197 29.304C178.659 29.6373 177.971 29.8031 177.132 29.8031C176.232 29.8031 175.455 29.6527 174.803 29.3519C174.18 29.0658 173.633 28.6393 173.203 28.1059C172.788 27.5657 172.478 26.9325 172.271 26.2052C172.07 25.4377 171.97 24.6468 171.977 23.8533C171.977 22.8876 172.106 22.0159 172.365 21.2373C172.634 20.4477 173.017 19.7725 173.514 19.2119C174.01 18.6519 174.625 18.2104 175.315 17.9197C176.029 17.618 176.832 17.4676 177.722 17.4676C179.265 17.4676 180.455 17.8155 181.294 18.5111C182.143 19.1965 182.634 20.1879 182.769 21.486H179.601C179.529 20.9673 179.332 20.5357 179.011 20.1938C178.701 19.8511 178.271 19.6794 177.722 19.6794ZM185.05 17.6394H188.388L191.447 22.7944C191.623 23.0953 191.774 23.3756 191.898 23.6354C192.109 24.0371 192.29 24.4535 192.441 24.8814H192.488V17.6394H195.314V29.5544H192.177L188.963 24.2114C188.792 23.9374 188.631 23.6568 188.482 23.3704C188.364 23.1465 188.255 22.9178 188.155 22.685C188.06 22.4755 187.971 22.2625 187.891 22.0466H187.844V29.5544H185.05V17.6394ZM197.553 17.6394H205.505V19.9443H200.705V22.5141H205.349V24.7566H200.705V27.2803H205.675V29.5536H197.553V17.6394ZM35.7058 3.08875C35.2016 3.08875 34.7529 3.18703 34.3598 3.38274C33.9752 3.5793 33.6505 3.85619 33.3855 4.21427C33.1292 4.57321 32.9326 5.00308 32.7959 5.50645C32.6537 6.05326 32.5847 6.61653 32.5908 7.18149C32.5908 7.81305 32.6591 8.38394 32.7959 8.89585C32.9326 9.39836 33.1334 9.82909 33.3984 10.1872C33.6633 10.5376 33.988 10.8059 34.3726 10.9931C34.7572 11.1811 35.1931 11.2751 35.6802 11.2751C36.116 11.2751 36.4886 11.211 36.7963 11.0828C37.104 10.9461 37.3604 10.7717 37.5655 10.5581C37.7706 10.3359 37.9287 10.094 38.0398 9.82909C38.1509 9.55561 38.2235 9.27957 38.2577 8.99755H39.4755C39.4363 9.44515 39.3192 9.88246 39.1294 10.2897C38.9414 10.682 38.6807 11.023 38.3474 11.3127C38.0227 11.6033 37.6338 11.8332 37.1809 12.0032C36.7365 12.1656 36.2357 12.2468 35.6802 12.2468C35.0392 12.2468 34.4495 12.1442 33.9111 11.9391C33.3885 11.731 32.9197 11.4076 32.5395 10.9931C32.1549 10.5752 31.8558 10.0513 31.6421 9.42058C31.4285 8.78048 31.3208 8.0344 31.3208 7.18149C31.3208 6.38841 31.4276 5.68079 31.6413 5.05863C31.8635 4.42793 32.1677 3.89465 32.5523 3.46051C32.9454 3.02465 33.4069 2.69221 33.9368 2.46232C34.4967 2.2276 35.0987 2.11009 35.7058 2.11705C36.1246 2.11705 36.5433 2.17688 36.9621 2.29652C37.3894 2.40677 37.7791 2.58624 38.1295 2.83322C38.4884 3.08106 38.7876 3.39983 39.0269 3.7921C39.2747 4.17667 39.4242 4.64073 39.4755 5.18683H38.2192C38.1731 4.92938 38.0912 4.67968 37.9757 4.44502C37.8571 4.19038 37.6919 3.96022 37.4885 3.76646C37.2719 3.55467 37.0142 3.38947 36.7314 3.28104C36.4408 3.15284 36.0989 3.08875 35.7058 3.08875ZM41.9445 7.19431C41.9445 6.31662 42.0641 5.562 42.3034 4.93044C42.5427 4.29119 42.8632 3.76646 43.2649 3.35795C43.6544 2.94802 44.1327 2.63286 44.663 2.43668C45.1929 2.23157 45.7484 2.12902 46.3295 2.12902C46.9278 2.12902 47.4918 2.23157 48.0217 2.43668C48.5601 2.63324 49.0301 2.94005 49.4318 3.3571C49.8334 3.76731 50.1548 4.29119 50.3941 4.93044C50.6334 5.562 50.753 6.31662 50.753 7.19517C50.753 8.06431 50.6334 8.81893 50.3941 9.45818C50.1633 10.0974 49.8428 10.6264 49.4326 11.0443C49.0356 11.4507 48.5543 11.7649 48.0225 11.9648C47.4927 12.1613 46.9278 12.2596 46.3295 12.2596C45.7482 12.264 45.1707 12.1642 44.6246 11.9648C44.0976 11.7624 43.6206 11.4484 43.2264 11.0443C42.8333 10.6264 42.5214 10.0983 42.2906 9.45818C42.0599 8.81893 41.9445 8.06431 41.9445 7.19431ZM46.3287 11.2999C46.791 11.2999 47.214 11.211 47.5986 11.0315C47.9917 10.8521 48.325 10.5923 48.5985 10.2513C48.8805 9.90173 49.0985 9.471 49.2532 8.95909C49.4155 8.44803 49.4967 7.86348 49.4967 7.20713C49.4967 6.5337 49.4198 5.94145 49.266 5.42954C49.1121 4.91762 48.8942 4.4869 48.6113 4.13736C48.3476 3.79547 48.0044 3.52321 47.6114 3.34428C47.2091 3.16171 46.7714 3.07009 46.3295 3.07593C45.868 3.07593 45.445 3.16139 45.0604 3.33231C44.6844 3.50324 44.3554 3.76218 44.0725 4.11172C43.799 4.45357 43.5854 4.88344 43.4315 5.4039C43.2777 5.91581 43.2008 6.5166 43.2008 7.20713C43.2008 7.87202 43.2734 8.46085 43.4187 8.97191C43.5725 9.48468 43.7862 9.91455 44.0597 10.2641C44.3331 10.6059 44.663 10.8649 45.0476 11.0443C45.4322 11.2153 45.8595 11.3007 46.3295 11.3007L46.3287 11.2999ZM53.7305 2.27003H54.9227V10.9931H59.7948V12.0545H53.7305V2.27003ZM62.2253 2.27003H63.4175V10.9931H68.2897V12.0545H62.2253V2.27003ZM70.7202 2.27003H76.9896V3.33231H71.9132V6.59352H76.5794V7.62931H71.9132V10.9931H77.0537V12.0545H70.7202V2.27003ZM84.0547 3.07593C83.5249 3.07593 83.0591 3.17848 82.6566 3.38359C82.2549 3.5793 81.9173 3.86046 81.6439 4.22709C81.3789 4.58603 81.1781 5.02445 81.0414 5.54491C80.8992 6.10044 80.8302 6.67218 80.8363 7.24559C80.8363 8.55058 81.1012 9.55219 81.631 10.2513C82.1609 10.9418 82.9266 11.2871 83.9265 11.2871C84.8581 11.2871 85.5845 11.0315 86.1058 10.5196C86.6271 10.0086 86.8878 9.27102 86.8878 8.30702V8.16686H84.0547V7.1174H88.0552V12.0545H87.016V10.6478H86.9647C86.8451 10.8615 86.6912 11.0657 86.5032 11.2614C86.3237 11.458 86.1058 11.6289 85.8494 11.7733C85.6016 11.9186 85.311 12.0331 84.9777 12.1186C84.653 12.2126 84.294 12.2596 83.9009 12.2596C83.2856 12.2596 82.713 12.1571 82.1831 11.9519C81.6617 11.7533 81.1923 11.4386 80.8106 11.0315C80.426 10.6136 80.1227 10.0889 79.9005 9.45904C79.6868 8.81808 79.58 8.06858 79.58 7.20713C79.58 6.4055 79.6911 5.69447 79.9133 5.0706C80.144 4.44075 80.4602 3.90747 80.8619 3.47247C81.2587 3.04122 81.7441 2.70098 82.2848 2.47514C82.8452 2.24202 83.447 2.12458 84.0539 2.12987C84.5581 2.12987 85.0247 2.19397 85.452 2.32131C85.8793 2.44095 86.2511 2.62042 86.5673 2.85886C86.8921 3.0896 87.157 3.37419 87.3621 3.71518C87.5672 4.04848 87.6997 4.4322 87.7603 4.86634H86.516C86.4779 4.59731 86.3817 4.33981 86.234 4.11172C86.0956 3.88883 85.9123 3.69729 85.6956 3.54939C85.4705 3.39052 85.2187 3.27356 84.9521 3.20412C84.6701 3.11866 84.3709 3.07593 84.0547 3.07593ZM91.4283 2.27003H97.6986V3.33231H92.6205V6.59352H97.2876V7.62931H92.6205V10.9931H97.7627V12.0545H91.4283V2.27003ZM105.423 2.27003H108.435C109.103 2.27003 109.726 2.35549 110.308 2.52641C110.889 2.69734 111.389 2.97338 111.807 3.3571C112.235 3.73313 112.568 4.22282 112.807 4.82874C113.055 5.43381 113.179 6.17049 113.179 7.04134C113.179 7.90193 113.064 8.64801 112.833 9.27957C112.611 9.91027 112.295 10.4307 111.884 10.8392C111.474 11.2495 110.987 11.5563 110.423 11.7605C109.859 11.9571 109.244 12.0545 108.576 12.0545H105.423V2.27003ZM108.435 11.0315C108.957 11.0315 109.432 10.9632 109.859 10.8264C110.286 10.6811 110.654 10.4521 110.961 10.1359C111.269 9.82054 111.508 9.41118 111.679 8.90867C111.85 8.4053 111.936 7.79596 111.936 7.07979C111.936 6.39696 111.85 5.81753 111.679 5.3398C111.508 4.85353 111.269 4.46211 110.961 4.163C110.663 3.85627 110.293 3.62791 109.885 3.49811C109.441 3.3577 108.978 3.28847 108.512 3.293H106.615V11.0315H108.435ZM116.146 2.27003H122.416V3.33231H117.339V6.59352H122.006V7.62931H117.339V10.9931H122.48V12.0545H116.146V2.27003Z" fill="white"/>
<path d="M74.9774 2.93928H74.1715C73.8382 2.67178 73.4708 2.32652 73.0716 1.90263C72.676 1.47532 72.3965 1.13604 72.2324 0.886495V0.746338H73.6648C73.8066 1.04033 74.0092 1.39243 74.2715 1.80264C74.533 2.20858 74.7689 2.53163 74.9774 2.77177V2.93928Z" fill="white"/>
</g>
<defs>
<clipPath id="clip0_2519_76898">
<rect width="205.107" height="29.9115" fill="white" transform="translate(0.568359 0.746338)"/>
</clipPath>
</defs>
</svg>
