<svg width="30" height="30" viewBox="0 0 30 30" fill="none" xmlns="http://www.w3.org/2000/svg">
<rect width="30" height="30" rx="6" fill="#3EC342"/>
<mask id="mask0_2653_601" style="mask-type:alpha" maskUnits="userSpaceOnUse" x="3" y="3" width="24" height="24">
<rect x="3" y="3" width="24" height="24" fill="#D9D9D9"/>
</mask>
<g mask="url(#mask0_2653_601)">
<mask id="mask1_2653_601" style="mask-type:alpha" maskUnits="userSpaceOnUse" x="3" y="3" width="24" height="24">
<rect x="3" y="3" width="24" height="24" fill="#D9D9D9"/>
</mask>
<g mask="url(#mask1_2653_601)">
<path d="M9 24C8.71667 24 8.47917 23.9042 8.2875 23.7125C8.09583 23.5208 8 23.2833 8 23V20.95C7.7 20.6167 7.45833 20.2458 7.275 19.8375C7.09167 19.4292 7 18.9833 7 18.5V9C7 7.61667 7.64167 6.60417 8.925 5.9625C10.2083 5.32083 12.2333 5 15 5C17.8667 5 19.9167 5.30833 21.15 5.925C22.3833 6.54167 23 7.56667 23 9V18.5C23 18.9833 22.9083 19.4292 22.725 19.8375C22.5417 20.2458 22.3 20.6167 22 20.95V23C22 23.2833 21.9042 23.5208 21.7125 23.7125C21.5208 23.9042 21.2833 24 21 24H20C19.7167 24 19.4792 23.9042 19.2875 23.7125C19.0958 23.5208 19 23.2833 19 23V22H11V23C11 23.2833 10.9042 23.5208 10.7125 23.7125C10.5208 23.9042 10.2833 24 10 24H9ZM9 13H21V10H9V13ZM11.5 19C11.9167 19 12.2708 18.8542 12.5625 18.5625C12.8542 18.2708 13 17.9167 13 17.5C13 17.0833 12.8542 16.7292 12.5625 16.4375C12.2708 16.1458 11.9167 16 11.5 16C11.0833 16 10.7292 16.1458 10.4375 16.4375C10.1458 16.7292 10 17.0833 10 17.5C10 17.9167 10.1458 18.2708 10.4375 18.5625C10.7292 18.8542 11.0833 19 11.5 19ZM18.5 19C18.9167 19 19.2708 18.8542 19.5625 18.5625C19.8542 18.2708 20 17.9167 20 17.5C20 17.0833 19.8542 16.7292 19.5625 16.4375C19.2708 16.1458 18.9167 16 18.5 16C18.0833 16 17.7292 16.1458 17.4375 16.4375C17.1458 16.7292 17 17.0833 17 17.5C17 17.9167 17.1458 18.2708 17.4375 18.5625C17.7292 18.8542 18.0833 19 18.5 19ZM9.45 8H20.65C20.4 7.71667 19.8625 7.47917 19.0375 7.2875C18.2125 7.09583 16.8833 7 15.05 7C13.2667 7 11.9625 7.10417 11.1375 7.3125C10.3125 7.52083 9.75 7.75 9.45 8ZM11 20H19C19.55 20 20.0208 19.8042 20.4125 19.4125C20.8042 19.0208 21 18.55 21 18V15H9V18C9 18.55 9.19583 19.0208 9.5875 19.4125C9.97917 19.8042 10.45 20 11 20Z" fill="black"/>
</g>
</g>
</svg>
