<svg width="30" height="30" viewBox="0 0 30 30" fill="none" xmlns="http://www.w3.org/2000/svg">
<rect width="30" height="30" rx="6" fill="#3EC342"/>
<mask id="mask0_2656_601" style="mask-type:alpha" maskUnits="userSpaceOnUse" x="3" y="3" width="24" height="24">
<rect x="3" y="3" width="24" height="24" fill="#D9D9D9"/>
</mask>
<g mask="url(#mask0_2656_601)">
<path d="M7 18.5V9C7 8.11667 7.22917 7.4125 7.6875 6.8875C8.14583 6.3625 8.75 5.9625 9.5 5.6875C10.25 5.4125 11.1042 5.22917 12.0625 5.1375C13.0208 5.04583 14 5 15 5C16.1 5 17.1375 5.04583 18.1125 5.1375C19.0875 5.22917 19.9375 5.4125 20.6625 5.6875C21.3875 5.9625 21.9583 6.3625 22.375 6.8875C22.7917 7.4125 23 8.11667 23 9V18.5C23 19.4833 22.6625 20.3125 21.9875 20.9875C21.3125 21.6625 20.4833 22 19.5 22L21 23.5V24H19L17 22H13L11 24H9V23.5L10.5 22C9.51667 22 8.6875 21.6625 8.0125 20.9875C7.3375 20.3125 7 19.4833 7 18.5ZM15 7C13.2333 7 11.9417 7.10417 11.125 7.3125C10.3083 7.52083 9.75 7.75 9.45 8H20.65C20.4 7.71667 19.8625 7.47917 19.0375 7.2875C18.2125 7.09583 16.8667 7 15 7ZM9 13H14V10H9V13ZM16 13H21V10H16V13ZM11.5 19C11.9333 19 12.2917 18.8583 12.575 18.575C12.8583 18.2917 13 17.9333 13 17.5C13 17.0667 12.8583 16.7083 12.575 16.425C12.2917 16.1417 11.9333 16 11.5 16C11.0667 16 10.7083 16.1417 10.425 16.425C10.1417 16.7083 10 17.0667 10 17.5C10 17.9333 10.1417 18.2917 10.425 18.575C10.7083 18.8583 11.0667 19 11.5 19ZM18.5 19C18.9333 19 19.2917 18.8583 19.575 18.575C19.8583 18.2917 20 17.9333 20 17.5C20 17.0667 19.8583 16.7083 19.575 16.425C19.2917 16.1417 18.9333 16 18.5 16C18.0667 16 17.7083 16.1417 17.425 16.425C17.1417 16.7083 17 17.0667 17 17.5C17 17.9333 17.1417 18.2917 17.425 18.575C17.7083 18.8583 18.0667 19 18.5 19ZM10.5 20H19.5C19.9333 20 20.2917 19.8583 20.575 19.575C20.8583 19.2917 21 18.9333 21 18.5V15H9V18.5C9 18.9333 9.14167 19.2917 9.425 19.575C9.70833 19.8583 10.0667 20 10.5 20Z" fill="black"/>
</g>
</svg>
