<svg width="30" height="30" viewBox="0 0 30 30" fill="none" xmlns="http://www.w3.org/2000/svg">
<rect width="30" height="30" rx="6" fill="#43ABFF"/>
<path d="M15 9C14.45 9 13.9792 8.80417 13.5875 8.4125C13.1958 8.02083 13 7.55 13 7C13 6.45 13.1958 5.97917 13.5875 5.5875C13.9792 5.19583 14.45 5 15 5C15.55 5 16.0208 5.19583 16.4125 5.5875C16.8042 5.97917 17 6.45 17 7C17 7.55 16.8042 8.02083 16.4125 8.4125C16.0208 8.80417 15.55 9 15 9ZM20 25V20H15C14.45 20 13.9792 19.8042 13.5875 19.4125C13.1958 19.0208 13 18.55 13 18V12C13 11.45 13.1958 10.9792 13.5875 10.5875C13.9792 10.1958 14.45 10 15 10C15.4 10 15.7458 10.0875 16.0375 10.2625C16.3292 10.4375 16.6417 10.7167 16.975 11.1C17.8917 12.2 18.7208 12.9542 19.4625 13.3625C20.2042 13.7708 21.05 13.9833 22 14V16C21.1167 16 20.225 15.8083 19.325 15.425C18.425 15.0417 17.65 14.5833 17 14.05V17.5H20C20.55 17.5 21.0208 17.6958 21.4125 18.0875C21.8042 18.4792 22 18.95 22 19.5V25H20ZM13 25C11.6167 25 10.4375 24.5125 9.4625 23.5375C8.4875 22.5625 8 21.3833 8 20C8 18.8 8.37917 17.7417 9.1375 16.825C9.89583 15.9083 10.85 15.3333 12 15.1V17.15C11.4167 17.3833 10.9375 17.7542 10.5625 18.2625C10.1875 18.7708 10 19.35 10 20C10 20.8333 10.2917 21.5417 10.875 22.125C11.4583 22.7083 12.1667 23 13 23C13.65 23 14.2292 22.8125 14.7375 22.4375C15.2458 22.0625 15.6167 21.5833 15.85 21H17.9C17.6667 22.15 17.0917 23.1042 16.175 23.8625C15.2583 24.6208 14.2 25 13 25Z" fill="black"/>
</svg>
