<svg width="107" height="107" viewBox="0 0 107 107" fill="none" xmlns="http://www.w3.org/2000/svg">
<mask id="mask0_2478_140204" style="mask-type:alpha" maskUnits="userSpaceOnUse" x="0" y="0" width="107" height="107">
<rect x="0.5" width="106.217" height="106.217" fill="#D9D9D9"/>
</mask>
<g mask="url(#mask0_2478_140204)">
<path d="M47.4106 73.4664L78.6118 42.2652L72.4158 36.0692L47.4106 61.0745L34.7974 48.4612L28.6014 54.6572L47.4106 73.4664ZM53.6066 97.3652C47.4844 97.3652 41.731 96.2034 36.3464 93.88C30.9618 91.5565 26.2779 88.4032 22.2948 84.42C18.3117 80.4369 15.1583 75.753 12.8348 70.3684C10.5114 64.9838 9.34961 59.2304 9.34961 53.1082C9.34961 46.986 10.5114 41.2326 12.8348 35.848C15.1583 30.4634 18.3117 25.7795 22.2948 21.7964C26.2779 17.8132 30.9618 14.6599 36.3464 12.3364C41.731 10.0129 47.4844 8.8512 53.6066 8.8512C59.7288 8.8512 65.4822 10.0129 70.8668 12.3364C76.2514 14.6599 80.9353 17.8132 84.9184 21.7964C88.9016 25.7795 92.0549 30.4634 94.3784 35.848C96.7019 41.2326 97.8636 46.986 97.8636 53.1082C97.8636 59.2304 96.7019 64.9838 94.3784 70.3684C92.0549 75.753 88.9016 80.4369 84.9184 84.42C80.9353 88.4032 76.2514 91.5565 70.8668 93.88C65.4822 96.2034 59.7288 97.3652 53.6066 97.3652Z" fill="#3EC342"/>
</g>
</svg>
