<svg width="106" height="105" viewBox="0 0 106 105" fill="none" xmlns="http://www.w3.org/2000/svg">
<mask id="mask0_2478_140280" style="mask-type:alpha" maskUnits="userSpaceOnUse" x="0" y="0" width="106" height="105">
<rect x="0.5" width="104.566" height="104.566" fill="#D9D9D9"/>
</mask>
<g mask="url(#mask0_2478_140280)">
<path d="M52.7842 74.0679C54.0186 74.0679 55.0534 73.6503 55.8885 72.8153C56.7236 71.9802 57.1411 70.9454 57.1411 69.7109C57.1411 68.4765 56.7236 67.4417 55.8885 66.6066C55.0534 65.7715 54.0186 65.354 52.7842 65.354C51.5497 65.354 50.5149 65.7715 49.6799 66.6066C48.8448 67.4417 48.4272 68.4765 48.4272 69.7109C48.4272 70.9454 48.8448 71.9802 49.6799 72.8153C50.5149 73.6503 51.5497 74.0679 52.7842 74.0679ZM48.4272 56.6401H57.1411V30.4985H48.4272V56.6401ZM52.7842 95.8525C46.7571 95.8525 41.0931 94.7088 35.7921 92.4215C30.4912 90.1341 25.8801 87.0298 21.9589 83.1085C18.0376 79.1873 14.9333 74.5762 12.6459 69.2752C10.3585 63.9743 9.21484 58.3103 9.21484 52.2832C9.21484 46.2561 10.3585 40.5921 12.6459 35.2912C14.9333 29.9902 18.0376 25.3791 21.9589 21.4579C25.8801 17.5367 30.4912 14.4323 35.7921 12.145C41.0931 9.85756 46.7571 8.71387 52.7842 8.71387C58.8113 8.71387 64.4753 9.85756 69.7762 12.145C75.0772 14.4323 79.6882 17.5367 83.6095 21.4579C87.5307 25.3791 90.635 29.9902 92.9224 35.2912C95.2098 40.5921 96.3535 46.2561 96.3535 52.2832C96.3535 58.3103 95.2098 63.9743 92.9224 69.2752C90.635 74.5762 87.5307 79.1873 83.6095 83.1085C79.6882 87.0298 75.0772 90.1341 69.7762 92.4215C64.4753 94.7088 58.8113 95.8525 52.7842 95.8525Z" fill="#FFAA00"/>
</g>
</svg>
