<svg width="206" height="30" viewBox="0 0 206 30" fill="none" xmlns="http://www.w3.org/2000/svg">
<g clip-path="url(#clip0_2582_370)">
<mask id="mask0_2582_370" style="mask-type:luminance" maskUnits="userSpaceOnUse" x="8" y="8" width="8" height="14">
<path d="M8.23633 8.50195H15.6501V21.1041H8.23633V8.50195Z" fill="white"/>
</mask>
<g mask="url(#mask0_2582_370)">
<path d="M14.3092 18.1001H10.9318V11.5068H14.316C15.0732 11.5068 15.6578 10.8103 15.6578 10.0009C15.6492 9.1771 15.0655 8.50195 14.3092 8.50195H8.23633V21.1049H14.3092C15.0655 21.1049 15.6492 20.4076 15.6492 19.5983C15.6492 18.7667 15.0655 18.1001 14.3092 18.1001Z" fill="#FFCF25"/>
</g>
<path d="M8.39402 29.3301H0V0.273193H15.3591C21.085 0.287722 23.3079 3.6079 24.1163 5.59573C24.8171 7.29641 24.8983 9.2022 24.3591 10.9302C23.766 12.836 22.6208 14.0333 21.732 14.7956C22.6344 15.558 23.766 16.769 24.3591 18.6611C24.8974 20.4082 24.8165 22.2875 24.13 23.9819C23.3216 25.9689 21.0987 29.3036 15.3728 29.3172C12.8799 29.3309 10.4955 29.3301 8.39402 29.3301ZM3.74492 26.3364H15.3454C18.4041 26.3364 20.4253 25.1655 21.3679 22.8529C21.7994 21.8154 21.852 20.6591 21.5166 19.5866C21.0073 17.9808 19.9398 17.1911 19.2126 16.6194C18.9992 16.4606 18.7965 16.2879 18.6058 16.1024C18.2625 15.7541 18.07 15.2847 18.07 14.7956C18.07 14.3066 18.2625 13.8372 18.6058 13.4889C18.781 13.312 18.9835 13.1625 19.2262 12.9719C19.9535 12.4138 21.0312 11.584 21.5166 10.032C21.8518 8.95028 21.7992 7.78549 21.3679 6.73835C20.4253 4.43858 18.4041 3.26861 15.3454 3.26861H2.95098V26.3218L3.74577 26.3355L3.74492 26.3364Z" fill="#FFCF25"/>
<path d="M31.0263 28.8081V16.8931H36.1044C37.6256 16.8931 38.7281 17.152 39.4118 17.6708C40.0954 18.1904 40.4373 18.9698 40.4373 20.0081C40.4373 20.35 40.3698 20.6568 40.2356 20.9268C40.1178 21.1872 39.9545 21.4245 39.7536 21.6276C39.5673 21.8242 39.3553 21.9908 39.1169 22.1259C38.8785 22.2506 38.6511 22.3395 38.4332 22.3908V22.4532C38.8067 22.5156 39.1485 22.6241 39.4588 22.7805C39.7801 22.9258 40.0544 23.1172 40.2817 23.3565C40.5202 23.5958 40.7005 23.8804 40.8253 24.2128C40.9595 24.535 41.027 24.9034 41.027 25.3187C41.027 25.8486 40.9244 26.3263 40.7167 26.7519C40.5044 27.1841 40.1963 27.5623 39.816 27.8578C39.4331 28.1586 38.9562 28.3919 38.3871 28.5585C37.8282 28.7243 37.1906 28.8072 36.477 28.8072L31.0263 28.8081ZM35.7779 21.7678C36.2958 21.7678 36.689 21.6533 36.9582 21.4251C37.2274 21.1969 37.3624 20.8491 37.3624 20.3816C37.3624 19.9346 37.2274 19.5928 36.9582 19.3535C36.689 19.1142 36.2958 18.9954 35.7788 18.9954H34.179V21.7678H35.7779ZM36.1659 26.6271C36.6941 26.6271 37.1034 26.5177 37.3932 26.2998C37.6931 26.0716 37.8435 25.6768 37.8435 25.1162C37.8435 24.6598 37.6931 24.312 37.3932 24.0735C37.1026 23.8342 36.6941 23.7146 36.1659 23.7146H34.179V26.6271H36.1659ZM42.4302 22.889C42.4302 21.9549 42.5593 21.108 42.8182 20.3508C43.0874 19.5928 43.4703 18.9433 43.9677 18.4032C44.4729 17.8576 45.0936 17.4318 45.7846 17.1571C46.4991 16.8666 47.3058 16.7213 48.2074 16.7213C49.1492 16.7213 49.9773 16.8666 50.6918 17.1571C51.4165 17.4375 52.0164 17.8425 52.4933 18.3724C52.9693 18.9023 53.3266 19.5509 53.565 20.3192C53.8128 21.0773 53.9376 21.9344 53.9376 22.889C53.9376 23.824 53.8086 24.6752 53.5496 25.4435C53.3009 26.2015 52.9283 26.8502 52.4309 27.3903C51.9298 27.9299 51.3143 28.3504 50.6294 28.6209C49.9261 28.9115 49.1185 29.0568 48.2074 29.0568C47.2332 29.0568 46.3845 28.9166 45.6607 28.6363C44.9351 28.3457 44.3352 27.9355 43.8592 27.4057C43.3823 26.8664 43.0251 26.2178 42.7875 25.4589C42.549 24.7008 42.4302 23.8436 42.4302 22.889ZM48.1912 26.8143C49.7449 26.8143 50.5209 25.5059 50.5209 22.889C50.5209 21.5704 50.3038 20.5841 49.8688 19.9295C49.4338 19.2655 48.8749 18.933 48.1912 18.933C46.6384 18.933 45.8624 20.2517 45.8624 22.8899C45.8624 24.218 46.0436 25.205 46.4059 25.8486C46.7683 26.4921 47.3622 26.8143 48.1912 26.8143ZM55.8366 16.8931H58.9892V28.8081H55.8366V16.8931ZM67.067 20.1483C67.0443 19.8422 66.912 19.5546 66.6944 19.3381C66.4663 19.0886 66.1201 18.9638 65.6535 18.9638C65.2399 18.9638 64.9032 19.0629 64.6451 19.2603C64.3853 19.4475 64.2562 19.7116 64.2562 20.0551C64.2562 20.3765 64.3545 20.6363 64.5511 20.8328C64.7476 21.0208 65.0997 21.1602 65.6074 21.2533L67.4704 21.596C68.4755 21.784 69.2463 22.1575 69.7847 22.7181C70.3334 23.2685 70.6077 23.9949 70.6077 24.8982C70.6077 25.5836 70.4941 26.1861 70.2659 26.7049C70.0451 27.2149 69.7041 27.6639 69.272 28.0133C68.8481 28.356 68.325 28.6158 67.7037 28.7919C67.0824 28.9688 66.3791 29.0568 65.592 29.0568C64.0699 29.0568 62.8846 28.7611 62.0351 28.1688C61.1976 27.5774 60.7463 26.6425 60.6848 25.3657H63.9614C64.0127 25.8221 64.1836 26.181 64.4742 26.44C64.7733 26.6895 65.1724 26.8143 65.6698 26.8143C66.1971 26.8143 66.6064 26.6946 66.8961 26.4553C67.1867 26.2169 67.3311 25.9212 67.3311 25.5682C67.3311 25.205 67.2175 24.935 66.9893 24.7581C66.7722 24.5709 66.3834 24.4256 65.8244 24.3222L63.9921 23.9633C63.5989 23.8909 63.2174 23.7652 62.8581 23.5898C62.5074 23.4141 62.1876 23.1826 61.9112 22.9044C61.6275 22.6176 61.401 22.2794 61.2437 21.9079C61.0779 21.5131 60.995 21.0567 60.995 20.5371C60.995 19.9868 61.0933 19.4774 61.2899 19.0108C61.4942 18.5473 61.8024 18.1371 62.1906 17.8118C62.5838 17.4691 63.0709 17.205 63.6503 17.017C64.2306 16.8204 64.9032 16.7213 65.6698 16.7213C66.4979 16.7213 67.2021 16.8093 67.7806 16.9862C68.3618 17.1623 68.8318 17.4067 69.195 17.7186C69.5574 18.0194 69.8215 18.3827 69.9864 18.8083C70.1645 19.2336 70.2647 19.6875 70.2821 20.1483H67.067ZM73.6271 21.7524H78.2027V23.9949H73.6271V21.7524ZM81.4032 16.8931H85.6891C86.6001 16.8931 87.4239 17.0067 88.1589 17.2349C88.9041 17.4639 89.5408 17.8169 90.069 18.2946C90.5971 18.7724 91.0056 19.38 91.2954 20.1167C91.5859 20.8431 91.7303 21.7062 91.7303 22.7019C91.7303 23.7095 91.5859 24.5974 91.2954 25.3657C91.0056 26.1237 90.592 26.757 90.0536 27.2655C89.5085 27.7848 88.8562 28.1783 88.1427 28.4184C87.4077 28.6782 86.5898 28.8081 85.6891 28.8081H81.4032V16.8931ZM85.4874 26.5177C85.9326 26.5177 86.336 26.4562 86.6992 26.3314C87.0526 26.2127 87.3685 26.0031 87.6154 25.7238C87.8632 25.4332 88.0547 25.0486 88.1897 24.5709C88.3239 24.0838 88.3914 23.4813 88.3914 22.7643C88.3914 22.0789 88.3239 21.508 88.1897 21.0516C88.0547 20.5841 87.8632 20.2098 87.6154 19.9295C87.3821 19.6527 87.0751 19.4476 86.73 19.3381C86.3557 19.208 85.9614 19.1447 85.5652 19.151H84.5559V26.5177H85.4874ZM93.8934 16.8931L101.964 16.8461V19.151L97.046 19.198V21.7678H101.964V24.0103H97.046V26.534H102.016V28.8072H93.8934V16.8931ZM104.989 21.7524H109.564V23.9949H104.989V21.7524ZM112.49 28.8081V16.8931H117.568C119.09 16.8931 120.192 17.152 120.876 17.6708C121.559 18.1904 121.901 18.9698 121.901 20.0081C121.901 20.35 121.834 20.6568 121.699 20.9268C121.575 21.1969 121.414 21.4311 121.218 21.6276C121.032 21.8242 120.819 21.9908 120.581 22.1259C120.343 22.2506 120.115 22.3395 119.898 22.3908V22.4532C120.27 22.5156 120.612 22.6241 120.922 22.7805C121.244 22.9258 121.518 23.1172 121.746 23.3565C121.984 23.5958 122.165 23.8804 122.29 24.2128C122.424 24.535 122.491 24.9034 122.491 25.3187C122.491 25.8486 122.388 26.3263 122.18 26.7519C121.973 27.1775 121.673 27.5467 121.279 27.8578C120.897 28.1586 120.421 28.3919 119.851 28.5585C119.292 28.7243 118.655 28.8072 117.94 28.8072L112.49 28.8081ZM117.242 21.7678C117.759 21.7678 118.153 21.6533 118.422 21.4251C118.692 21.1969 118.826 20.8491 118.826 20.3816C118.826 19.9346 118.692 19.5928 118.422 19.3535C118.153 19.1142 117.759 18.9954 117.242 18.9954H115.642V21.7678H117.242ZM117.63 26.6271C118.158 26.6271 118.567 26.5177 118.857 26.2998C119.157 26.0716 119.308 25.6768 119.308 25.1162C119.308 24.6598 119.157 24.312 118.857 24.0735C118.567 23.8342 118.158 23.7146 117.63 23.7146H115.642V26.6271H117.63ZM123.894 22.889C123.894 21.9549 124.024 21.108 124.282 20.3508C124.551 19.5928 124.935 18.9433 125.431 18.4032C125.936 17.8576 126.557 17.4319 127.248 17.1571C127.963 16.8666 128.77 16.7213 129.671 16.7213C130.614 16.7213 131.442 16.8666 132.156 17.1571C132.881 17.4375 133.481 17.8425 133.957 18.3724C134.434 18.9023 134.791 19.5509 135.028 20.3192C135.277 21.0773 135.401 21.9344 135.401 22.889C135.401 23.824 135.272 24.6752 135.013 25.4435C134.764 26.2015 134.392 26.8502 133.895 27.3903C133.408 27.9201 132.808 28.3304 132.094 28.6209C131.39 28.9115 130.582 29.0568 129.671 29.0568C128.698 29.0568 127.849 28.9166 127.124 28.6363C126.399 28.3457 125.799 27.9355 125.323 27.4057C124.847 26.8664 124.489 26.2178 124.251 25.4589C124.013 24.7008 123.894 23.8436 123.894 22.889ZM129.656 26.8143C131.208 26.8143 131.985 25.5059 131.985 22.889C131.985 21.5704 131.767 20.5841 131.332 19.9295C130.898 19.2655 130.338 18.933 129.656 18.933C128.103 18.933 127.326 20.2517 127.326 22.8899C127.326 24.218 127.507 25.205 127.869 25.8486C128.232 26.4921 128.827 26.8143 129.656 26.8143ZM137.208 16.8931H140.36L140.344 23.9009C140.344 24.265 140.36 24.6333 140.391 25.0076C140.432 25.3811 140.542 25.6879 140.717 25.9263C140.904 26.1656 141.121 26.3365 141.37 26.44C141.618 26.5442 141.908 26.5963 142.239 26.5963C142.964 26.5963 143.497 26.3724 143.839 25.9263C144.005 25.687 144.098 25.3811 144.118 25.0076C144.139 24.6333 144.149 24.265 144.149 23.9018V16.8931H147.255V24.5401C147.255 25.2982 147.131 25.9631 146.883 26.534C146.658 27.0763 146.306 27.5569 145.857 27.9355C145.422 28.309 144.895 28.5893 144.274 28.7765C143.652 28.9636 142.964 29.0568 142.208 29.0568C141.453 29.0568 140.764 28.9628 140.142 28.7765C139.567 28.6085 139.033 28.3221 138.574 27.9355C138.133 27.5535 137.787 27.0735 137.565 26.534C137.327 25.9631 137.208 25.2982 137.208 24.5401V16.8931ZM149.395 16.8931H152.547V26.44H157.254V28.8072H149.395V16.8931ZM158.266 22.889C158.266 21.9549 158.396 21.108 158.654 20.3508C158.924 19.5928 159.307 18.9433 159.804 18.4032C160.309 17.8576 160.93 17.4319 161.621 17.1571C162.335 16.8666 163.143 16.7213 164.043 16.7213C164.985 16.7213 165.814 16.8666 166.528 17.1571C167.253 17.4375 167.853 17.8425 168.329 18.3724C168.806 18.9023 169.163 19.5509 169.401 20.3192C169.65 21.0773 169.774 21.9344 169.774 22.889C169.774 23.824 169.645 24.6752 169.386 25.4435C169.137 26.2015 168.764 26.8502 168.268 27.3903C167.781 27.9201 167.181 28.3304 166.466 28.6209C165.762 28.9115 164.955 29.0568 164.043 29.0568C163.07 29.0568 162.221 28.9166 161.497 28.6363C160.772 28.3457 160.171 27.9355 159.695 27.4057C159.219 26.8664 158.862 26.2178 158.624 25.4589C158.385 24.7008 158.266 23.8436 158.266 22.889ZM164.028 26.8143C165.581 26.8143 166.358 25.5059 166.358 22.889C166.358 21.5704 166.14 20.5841 165.705 19.9295C165.271 19.2655 164.711 18.933 164.028 18.933C162.475 18.933 161.698 20.2517 161.698 22.8899C161.698 24.218 161.88 25.205 162.242 25.8486C162.604 26.4921 163.2 26.8143 164.028 26.8143ZM177.153 18.933C176.418 18.933 175.833 19.2552 175.399 19.8987C174.974 20.532 174.762 21.5293 174.762 22.8899C174.762 23.6471 174.818 24.2803 174.932 24.7897C175.057 25.2879 175.228 25.693 175.445 26.0041C175.663 26.3049 175.921 26.5237 176.222 26.6579C176.522 26.7827 176.853 26.8459 177.216 26.8459C177.868 26.8459 178.38 26.6528 178.753 26.269C179.126 25.8742 179.353 25.3341 179.436 24.6495L179.468 24.4H176.998V22.266H182.372V28.8081H179.933V27.2501H179.886C179.594 27.7924 179.159 28.2445 178.628 28.5577C178.09 28.891 177.402 29.0568 176.564 29.0568C175.663 29.0568 174.886 28.9064 174.234 28.6055C173.611 28.3195 173.064 27.893 172.634 27.3595C172.22 26.8194 171.909 26.1861 171.703 25.4589C171.501 24.6914 171.402 23.9005 171.408 23.107C171.408 22.1412 171.537 21.2695 171.796 20.491C172.065 19.7013 172.448 19.0262 172.945 18.4656C173.441 17.9056 174.057 17.464 174.746 17.1734C175.46 16.8717 176.263 16.7213 177.153 16.7213C178.696 16.7213 179.886 17.0691 180.726 17.7648C181.574 18.4502 182.066 19.4415 182.201 20.7397H179.033C178.96 20.2209 178.763 19.7894 178.442 19.4475C178.132 19.1048 177.702 18.933 177.153 18.933ZM184.481 16.8931H187.819L190.878 22.0481C191.054 22.3489 191.205 22.6292 191.329 22.889C191.54 23.2908 191.721 23.7072 191.872 24.1351H191.919V16.8931H194.745V28.8081H191.608L188.394 23.465C188.223 23.191 188.062 22.9105 187.913 22.6241C187.795 22.4001 187.686 22.1715 187.586 21.9387C187.491 21.7291 187.403 21.5162 187.322 21.3003H187.275V28.8081H184.481V16.8931ZM196.985 16.8931H204.936V19.198H200.136V21.7678H204.78V24.0103H200.136V26.534H205.106V28.8072H196.985V16.8931ZM35.137 2.34241C34.6328 2.34241 34.1841 2.44069 33.791 2.6364C33.4064 2.83296 33.0816 3.10985 32.8167 3.46794C32.5603 3.82687 32.3638 4.25675 32.227 4.76011C32.0848 5.30692 32.0158 5.87019 32.0219 6.43516C32.0219 7.06672 32.0903 7.6376 32.227 8.14951C32.3638 8.65202 32.5646 9.08275 32.8295 9.44083C33.0944 9.79122 33.4192 10.0596 33.8038 10.2467C34.1884 10.4347 34.6242 10.5288 35.1113 10.5288C35.5472 10.5288 35.9198 10.4647 36.2275 10.3365C36.5351 10.1997 36.7915 10.0254 36.9966 9.81173C37.2017 9.58953 37.3598 9.34768 37.4709 9.08275C37.582 8.80927 37.6547 8.53323 37.6889 8.25121H38.9067C38.8675 8.69881 38.7503 9.13612 38.5606 9.54339C38.3725 9.93565 38.1119 10.2766 37.7786 10.5664C37.4538 10.8569 37.065 11.0868 36.612 11.2569C36.1676 11.4193 35.6668 11.5005 35.1113 11.5005C34.4704 11.5005 33.8807 11.3979 33.3423 11.1928C32.8197 10.9847 32.3508 10.6613 31.9706 10.2467C31.5861 9.82883 31.2869 9.30495 31.0733 8.67424C30.8596 8.03414 30.752 7.28806 30.752 6.43516C30.752 5.64207 30.8588 4.93445 31.0724 4.3123C31.2946 3.68159 31.5989 3.14831 31.9834 2.71417C32.3766 2.27831 32.8381 1.94587 33.3679 1.71598C33.9278 1.48126 34.5299 1.36375 35.137 1.37071C35.5557 1.37071 35.9745 1.43054 36.3933 1.55018C36.8206 1.66043 37.2103 1.8399 37.5607 2.08688C37.9196 2.33472 38.2187 2.65349 38.458 3.04576C38.7058 3.43033 38.8554 3.89439 38.9067 4.44049H37.6504C37.6043 4.18305 37.5223 3.93334 37.4068 3.69868C37.2883 3.44404 37.123 3.21388 36.9197 3.02012C36.7031 2.80833 36.4454 2.64313 36.1625 2.5347C35.8719 2.40651 35.5301 2.34241 35.137 2.34241ZM41.3757 6.44798C41.3757 5.57029 41.4953 4.81566 41.7346 4.1841C41.9739 3.54485 42.2944 3.02012 42.696 2.61161C43.0855 2.20169 43.5638 1.88652 44.0942 1.69034C44.624 1.48523 45.1795 1.38268 45.7607 1.38268C46.3589 1.38268 46.923 1.48523 47.4528 1.69034C47.9912 1.8869 48.4613 2.19371 48.8629 2.61076C49.2646 3.02097 49.5859 3.54485 49.8252 4.1841C50.0645 4.81566 50.1842 5.57029 50.1842 6.44883C50.1842 7.31797 50.0645 8.0726 49.8252 8.71185C49.5945 9.3511 49.274 9.8801 48.8638 10.298C48.4668 10.7043 47.9854 11.0186 47.4537 11.2184C46.9238 11.415 46.3589 11.5133 45.7607 11.5133C45.1793 11.5177 44.6018 11.4178 44.0557 11.2184C43.5287 11.0161 43.0518 10.7021 42.6576 10.298C42.2645 9.8801 41.9525 9.35195 41.7218 8.71185C41.491 8.0726 41.3757 7.31797 41.3757 6.44798ZM45.7598 10.5535C46.2222 10.5535 46.6452 10.4647 47.0298 10.2852C47.4229 10.1057 47.7562 9.84592 48.0297 9.50493C48.3117 9.15539 48.5296 8.72467 48.6843 8.21275C48.8467 7.70169 48.9279 7.11714 48.9279 6.46079C48.9279 5.78736 48.851 5.19511 48.6971 4.6832C48.5433 4.17128 48.3254 3.74056 48.0425 3.39102C47.7788 3.04913 47.4355 2.77687 47.0426 2.59794C46.6402 2.41537 46.2025 2.32375 45.7607 2.32959C45.2992 2.32959 44.8762 2.41505 44.4916 2.58598C44.1155 2.7569 43.7865 3.01585 43.5036 3.36538C43.2302 3.70723 43.0165 4.1371 42.8627 4.65756C42.7089 5.16947 42.6319 5.77027 42.6319 6.46079C42.6319 7.12568 42.7046 7.71451 42.8499 8.22557C43.0037 8.73834 43.2173 9.16821 43.4908 9.51775C43.7643 9.85959 44.0942 10.1185 44.4788 10.298C44.8633 10.4689 45.2906 10.5544 45.7607 10.5544L45.7598 10.5535ZM53.1616 1.52369H54.3538V10.2467H59.226V11.3082H53.1616V1.52369ZM61.6565 1.52369H62.8487V10.2467H67.7208V11.3082H61.6565V1.52369ZM70.1513 1.52369H76.4208V2.58598H71.3444V5.84718H76.0106V6.88297H71.3444V10.2467H76.4849V11.3082H70.1513V1.52369ZM83.4859 2.32959C82.956 2.32959 82.4903 2.43214 82.0877 2.63725C81.6861 2.83296 81.3485 3.11413 81.075 3.48076C80.8101 3.83969 80.6093 4.27811 80.4725 4.79857C80.3303 5.3541 80.2614 5.92584 80.2674 6.49925C80.2674 7.80425 80.5323 8.80585 81.0622 9.50493C81.5921 10.1955 82.3578 10.5407 83.3577 10.5407C84.2892 10.5407 85.0156 10.2852 85.537 9.77328C86.0583 9.26222 86.3189 8.52469 86.3189 7.56068V7.42053H83.4859V6.37106H87.4863V11.3082H86.4471V9.90147H86.3958C86.2762 10.1151 86.1224 10.3194 85.9344 10.5151C85.7549 10.7116 85.537 10.8826 85.2806 11.027C85.0327 11.1723 84.7422 11.2868 84.4089 11.3723C84.0841 11.4663 83.7252 11.5133 83.3321 11.5133C82.7167 11.5133 82.1441 11.4107 81.6143 11.2056C81.0928 11.007 80.6235 10.6922 80.2418 10.2852C79.8572 9.86728 79.5538 9.34255 79.3316 8.7127C79.118 8.07174 79.0111 7.32224 79.0111 6.46079C79.0111 5.65917 79.1222 4.94813 79.3444 4.32426C79.5752 3.69441 79.8914 3.16113 80.2931 2.72613C80.6898 2.29488 81.1752 1.95464 81.716 1.7288C82.2764 1.49568 82.8781 1.37824 83.485 1.38353C83.9893 1.38353 84.4559 1.44763 84.8832 1.57497C85.3105 1.69461 85.6822 1.87408 85.9985 2.11252C86.3232 2.34326 86.5881 2.62785 86.7932 2.96884C86.9983 3.30214 87.1308 3.68586 87.1915 4.12001H85.9472C85.9091 3.85098 85.8128 3.59347 85.6652 3.36538C85.5268 3.14249 85.3434 2.95095 85.1267 2.80305C84.9017 2.64418 84.6498 2.52722 84.3832 2.45778C84.1012 2.37232 83.8021 2.32959 83.4859 2.32959ZM90.8595 1.52369H97.1298V2.58598H92.0517V5.84718H96.7187V6.88297H92.0517V10.2467H97.1939V11.3082H90.8595V1.52369ZM104.854 1.52369H107.866C108.534 1.52369 109.158 1.60915 109.739 1.78007C110.32 1.951 110.82 2.22704 111.239 2.61076C111.666 2.98679 111.999 3.47648 112.239 4.0824C112.486 4.68747 112.61 5.42415 112.61 6.295C112.61 7.1556 112.495 7.90167 112.264 8.53323C112.042 9.16394 111.726 9.6844 111.316 10.0929C110.905 10.5031 110.418 10.8099 109.854 11.0142C109.29 11.2107 108.675 11.3082 108.007 11.3082H104.854V1.52369ZM107.866 10.2852C108.388 10.2852 108.863 10.2168 109.29 10.0801C109.717 9.9348 110.085 9.70576 110.393 9.38956C110.7 9.0742 110.939 8.66484 111.11 8.16233C111.281 7.65896 111.367 7.04962 111.367 6.33346C111.367 5.65062 111.281 5.07119 111.11 4.59346C110.939 4.10719 110.7 3.71577 110.393 3.41666C110.094 3.10994 109.724 2.88158 109.316 2.75177C108.872 2.61136 108.409 2.54214 107.943 2.54666H106.046V10.2852H107.866ZM115.577 1.52369H121.847V2.58598H116.77V5.84718H121.437V6.88297H116.77V10.2467H121.911V11.3082H115.577V1.52369Z" fill="white"/>
<path d="M74.4091 2.19294H73.6032C73.2699 1.92544 72.9024 1.58018 72.5033 1.15629C72.1076 0.728986 71.8281 0.389704 71.6641 0.140157V0H73.0964C73.2383 0.293987 73.4408 0.646088 73.7032 1.0563C73.9647 1.46224 74.2006 1.78529 74.4091 2.02543V2.19294Z" fill="white"/>
</g>
<defs>
<clipPath id="clip0_2582_370">
<rect width="205.107" height="29.9115" fill="white"/>
</clipPath>
</defs>
</svg>
