<svg width="230" height="128" viewBox="0 0 230 128" fill="none" xmlns="http://www.w3.org/2000/svg">
<path d="M0 19H230V113.397C230 121.462 223.462 128 215.397 128H14.6032C6.53806 128 0 121.462 0 113.397V19Z" fill="#242424"/>
<rect x="37.7246" y="38" width="71.0245" height="71.0245" rx="8.87807" fill="black"/>
<mask id="mask0_69_118" style="mask-type:alpha" maskUnits="userSpaceOnUse" x="55" y="53" width="34" height="40">
<mask id="mask1_69_118" style="mask-type:luminance" maskUnits="userSpaceOnUse" x="55" y="53" width="35" height="40">
<path d="M89.4352 53.5364H55.4766V92.8835H89.4352V53.5364Z" fill="white"/>
</mask>
<g mask="url(#mask1_69_118)">
<path d="M55.0859 92.885V53.5378H76.1495C84.0046 53.5553 87.054 58.0433 88.1606 60.744C89.117 63.0384 89.2351 65.595 88.4944 67.9677C87.8267 70.0235 86.5749 71.8419 84.8905 73.2013C86.5751 74.5608 87.827 76.3791 88.4944 78.4352C89.2317 80.8007 89.1207 83.3485 88.1808 85.6414C87.0715 88.332 84.0223 92.8473 76.1695 92.8675L55.0859 92.885Z" fill="#8B61D0"/>
</g>
</mask>
<g mask="url(#mask0_69_118)">
<rect x="-399.475" y="-199.269" width="944.331" height="538.072" fill="#007CE2"/>
</g>
<mask id="mask2_69_118" style="mask-type:alpha" maskUnits="userSpaceOnUse" x="55" y="71" width="25" height="23">
<rect x="55.4766" y="71.5144" width="23.9708" height="21.9732" fill="#D9D9D9"/>
</mask>
<g mask="url(#mask2_69_118)">
<path d="M71.8732 92.8687C71.8732 90.9211 71.4765 89.1025 70.683 87.4129C69.8896 85.7233 68.8075 84.2459 67.437 82.9808C66.0664 81.7156 64.466 80.7169 62.6355 79.9844C60.8051 79.252 57.5865 78.8858 55.4766 78.8858V75.8894C58.0373 75.8894 61.6753 76.3305 63.8934 77.2128C66.1115 78.095 68.0591 79.3102 69.7363 80.8583C71.4134 82.4065 72.7298 84.2043 73.6856 86.2518C74.6414 88.2993 75.1193 90.5049 75.1193 92.8687H71.8732ZM65.4644 92.8687C65.4644 91.7534 65.1557 90.7172 64.7049 89.76C64.2541 88.8028 63.6319 87.958 62.8384 87.2256C62.0449 86.4931 61.1297 85.9188 60.0928 85.5027C59.0559 85.0865 56.6848 85.1032 55.4766 85.1032V81.8821C57.1357 81.8821 59.9305 82.1693 61.3642 82.7436C62.7978 83.3179 64.0557 84.1044 65.1377 85.1032C66.2197 86.102 67.0718 87.263 67.694 88.5864C68.3161 89.9098 68.6272 91.3372 68.6272 92.8687L65.4644 92.8687Z" fill="#3EC342"/>
</g>
<path d="M140.603 59.9656C136.514 59.9656 133.974 63.3665 133.974 70.9002C133.974 79.2518 136.729 81.8348 140.776 81.8348C144.392 81.8348 146.458 79.5101 146.932 75.7648L147.018 75.076H140.173V69.1782H155.068V87.259H148.309V82.9541H148.18C146.587 85.9245 143.617 87.9478 138.968 87.9478C129.023 87.9478 124.675 80.8446 124.675 71.5029C124.675 60.8266 130.788 53.8526 140.603 53.8526C149.127 53.8526 153.863 57.8131 154.595 64.9594H145.812C145.425 62.1181 143.617 59.9656 140.603 59.9656ZM159.106 70.9002C159.106 60.5683 165.133 53.8526 175.121 53.8526C185.625 53.8526 191.006 60.3531 191.006 70.9002C191.006 81.2751 185.237 87.9478 175.121 87.9478C164.315 87.9478 159.106 81.4043 159.106 70.9002ZM175.078 81.7487C179.426 81.7487 181.535 78.1756 181.535 70.9002C181.535 63.6248 178.866 59.9656 175.078 59.9656C170.73 59.9656 168.62 63.6248 168.62 70.9002C168.62 78.2186 170.514 81.7487 175.078 81.7487Z" fill="white"/>
<path d="M0 16.8571C0 7.5472 7.5472 0 16.8571 0H213.14C222.452 0 230 7.54848 230 16.86V19.6667H0V16.8571Z" fill="#EB9D00"/>
<path d="M107.342 13.6189H104.502V7.42895H107.148C108.733 7.42895 109.405 7.97108 109.405 9.04724C109.405 9.75928 108.814 10.1719 108.361 10.2852V10.3176C109.138 10.4471 109.713 10.9487 109.713 11.8064C109.713 12.8988 108.831 13.6189 107.342 13.6189ZM106.144 9.96157H106.978C107.512 9.96157 107.803 9.72692 107.803 9.24143C107.803 8.78022 107.512 8.5213 106.978 8.5213H106.144V9.96157ZM106.144 12.4861H107.18C107.73 12.4861 108.054 12.2838 108.054 11.7012C108.054 11.2319 107.73 10.973 107.18 10.973H106.144V12.4861ZM110.42 13.6189V7.42895H114.563V8.62648H112.063V9.96157H114.482V11.1267H112.063V12.4375H114.652V13.6189H110.42ZM120.217 7.42895V8.68312H118.559V13.6189H116.916V8.68312H115.257V7.42895H120.217ZM122.846 8.78022C122.838 8.8045 122.79 9.15243 122.612 9.75119L122.142 11.329H123.55L123.089 9.75928C122.903 9.12815 122.863 8.78022 122.863 8.78022H122.846ZM124.279 13.6189L123.922 12.5023H121.77L121.406 13.6189H119.861L122.005 7.42895H123.817L125.986 13.6189H124.279Z" fill="black"/>
</svg>
