<svg width="30" height="30" viewBox="0 0 30 30" fill="none" xmlns="http://www.w3.org/2000/svg">
<rect width="30" height="30" rx="6" fill="#F74E8F"/>
<mask id="mask0_2652_626" style="mask-type:alpha" maskUnits="userSpaceOnUse" x="3" y="3" width="24" height="24">
<rect x="3" y="3" width="24" height="24" fill="#D9D9D9"/>
</mask>
<g mask="url(#mask0_2652_626)">
<path d="M8 23C6.58333 23 5.39583 22.5208 4.4375 21.5625C3.47917 20.6042 3 19.4167 3 18C3 16.5833 3.4875 15.3958 4.4625 14.4375C5.4375 13.4792 6.61667 13 8 13C9.28333 13 10.3625 13.3833 11.2375 14.15C12.1125 14.9167 12.6667 15.8667 12.9 17H13.55L11.75 12H10V10H15V12H13.9L14.25 13H19.05L17.6 9H15V7H17.6C18.0333 7 18.4208 7.11667 18.7625 7.35C19.1042 7.58333 19.35 7.9 19.5 8.3L21.2 12.95H22C23.3833 12.95 24.5625 13.4375 25.5375 14.4125C26.5125 15.3875 27 16.5667 27 17.95C27 19.35 26.5167 20.5417 25.55 21.525C24.5833 22.5083 23.4 23 22 23C20.8 23 19.7458 22.625 18.8375 21.875C17.9292 21.125 17.35 20.1667 17.1 19H12.9C12.6667 20.15 12.1 21.1042 11.2 21.8625C10.3 22.6208 9.23333 23 8 23ZM8 21C8.68333 21 9.27083 20.8125 9.7625 20.4375C10.2542 20.0625 10.6 19.5833 10.8 19H8V17H10.8C10.6 16.4 10.2542 15.9167 9.7625 15.55C9.27083 15.1833 8.68333 15 8 15C7.15 15 6.4375 15.2875 5.8625 15.8625C5.2875 16.4375 5 17.15 5 18C5 18.8333 5.2875 19.5417 5.8625 20.125C6.4375 20.7083 7.15 21 8 21ZM15.7 17H17.1C17.1833 16.6167 17.2958 16.2583 17.4375 15.925C17.5792 15.5917 17.7667 15.2833 18 15H14.95L15.7 17ZM22 21C22.85 21 23.5625 20.7083 24.1375 20.125C24.7125 19.5417 25 18.8333 25 18C25 17.15 24.7125 16.4375 24.1375 15.8625C23.5625 15.2875 22.85 15 22 15H21.9L22.9 17.65L21 18.35L20.05 15.7C19.7167 15.9833 19.4583 16.3167 19.275 16.7C19.0917 17.0833 19 17.5167 19 18C19 18.8333 19.2875 19.5417 19.8625 20.125C20.4375 20.7083 21.15 21 22 21Z" fill="black"/>
</g>
</svg>
