<svg width="79" height="79" viewBox="0 0 79 79" fill="none" xmlns="http://www.w3.org/2000/svg">
<g clip-path="url(#clip0_12_1312)">
<rect width="78.5" height="78.5" fill="white"/>
<g clip-path="url(#clip1_12_1312)" filter="url(#filter0_dddd_12_1312)">
<path d="M0 78.4751H78.4751V0H0V78.4751Z" fill="#E4022C"/>
<path d="M68.8969 36.1356C68.8969 34.4485 65.7405 33.3057 59.6453 32.6526C56.7066 32.3261 53.2781 32.1628 49.4142 32.1628C46.0401 32.1628 42.5027 32.2717 38.7476 32.5438C32.326 32.9792 25.6866 33.8499 20.1357 34.9927C19.7003 35.1016 19.2105 35.2104 18.8296 35.3193C18.5575 35.3737 18.3398 35.4281 18.1221 35.4825C14.1494 36.4621 9.25147 37.8226 9.578 40.0539L10.0134 39.8906C9.90452 38.6389 13.0609 37.1696 18.2309 35.9179C18.6663 35.809 19.0472 35.7546 19.4826 35.6458L20.2989 35.4825C25.1968 34.4485 31.6185 33.6322 38.8565 33.1968C42.1762 32.9792 45.4959 32.8703 48.6523 32.8703C52.7338 32.8703 56.38 33.0336 59.5365 33.4145C65.5772 34.0676 67.754 35.2648 67.8085 36.1356H68.8969Z" fill="#FEFEFE"/>
<path d="M32.1629 28.408H18.2855L12.0815 53.2239H26.0677L27.0473 49.36H17.6869L19.4828 42.2309H27.4283L28.4078 38.4214H20.408L21.9317 32.2718H31.1289L32.1629 28.408Z" fill="#FEFEFE"/>
<path d="M30.7479 22.2583C30.2037 22.2583 29.6595 22.5848 28.6799 23.129L28.5711 23.1835L23.6732 26.1222L22.9657 26.5576L23.782 26.6664L24.8705 26.7752H24.9249L24.9793 26.7208L30.5847 24.9794C31.2377 24.8161 31.8908 24.5984 32.054 23.8909C32.1629 23.5644 32.1085 23.2379 31.8908 22.9658C31.7275 22.6392 31.4554 22.476 31.1289 22.3671C31.02 22.3127 30.9112 22.2583 30.7479 22.2583Z" fill="#FEFEFE"/>
<path d="M39.4552 44.3532C38.9654 44.4076 38.0946 44.462 37.0606 44.5165C36.843 44.5165 36.5709 44.5709 36.3532 44.5709L34.8838 50.3939H39.5096L41.0334 44.1899C40.5436 44.2988 39.9994 44.3532 39.4552 44.3532Z" fill="#FEFEFE"/>
<path d="M34.1219 25.5779L33.1423 29.4418H40.1082L39.9449 30.0948L36.7885 42.8293C37.0606 42.8293 37.2783 42.7749 37.496 42.7749C38.3123 42.7205 38.9653 42.6661 39.3463 42.6117C40.0538 42.5572 40.8157 42.5028 41.5231 42.4484L44.734 29.4418H51.2645L52.0808 26.2309L52.2441 25.5779H34.1219Z" fill="#FEFEFE"/>
<path d="M66.448 25.5235C64.1624 24.163 61.9855 23.8364 60.5706 23.8364C58.1761 23.8364 56.1081 24.6527 54.6387 26.1221C53.3326 27.4826 52.5707 29.2785 52.5707 31.1833C52.5707 33.3601 53.5503 34.9383 54.6931 36.19C55.2917 36.843 55.8904 37.3328 56.4346 37.877C56.9788 38.3668 57.4686 38.8566 57.904 39.4552L58.2305 39.945H58.3393C58.8291 39.8362 59.3189 39.6729 59.8087 39.5641C60.8971 39.292 61.9311 39.0199 62.8018 38.6934C62.5297 38.2036 62.2576 37.8226 61.9855 37.4417C61.5502 36.8975 61.0604 36.4077 60.625 35.9723L59.8631 35.2648C59.4822 34.9383 59.0468 34.5574 58.6658 34.1764C57.8495 33.3057 57.1965 32.3261 57.1965 31.1288C57.1965 29.4418 58.5026 27.6459 60.8427 27.6459C61.7134 27.6459 63.4549 27.918 65.2508 29.6051L65.5773 29.9316L65.6862 29.4962L66.5569 25.9588L66.6113 25.85L66.6657 25.6323L66.448 25.5235Z" fill="#FEFEFE"/>
<path d="M63.4005 40.3259C62.4209 40.6525 61.3869 40.9246 60.2441 41.2511C59.9175 41.3599 59.5366 41.4144 59.2101 41.5232C59.1012 41.5776 58.938 41.5776 58.8291 41.632C58.8835 41.7953 58.8835 41.9586 58.8835 42.1218C58.8835 44.1354 57.5774 46.149 54.7475 46.149C52.8428 46.149 51.0469 45.3327 49.3599 43.7545L49.0333 43.4279L48.9245 43.8633L47.9449 47.7272V47.8904L48.1082 47.9993C48.2714 48.1081 48.3803 48.1625 48.5435 48.2714C50.4483 49.3598 52.6795 49.9584 54.9652 49.9584C60.625 49.9584 63.5637 45.9857 63.5637 42.0674C63.6182 41.4143 63.5093 40.8157 63.4005 40.3259Z" fill="#FEFEFE"/>
<mask id="mask0_12_1312" style="mask-type:luminance" maskUnits="userSpaceOnUse" x="28" y="36" width="41" height="9">
<path d="M67.863 36.1355C67.9174 36.6797 66.2848 38.1491 59.8631 39.7817C54.421 41.1422 47.1286 42.2851 39.3464 42.8837C37.7138 42.9925 30.5846 43.4823 28.8976 43.5368H28.7887L28.7343 43.9177V44.8429H28.7887C30.4758 44.7884 37.6593 44.2442 39.4552 44.1354C44.9518 43.7 50.3394 43.047 54.9108 42.1762C56.8155 41.7953 58.557 41.4143 60.1896 41.0334C66.0671 39.5096 68.9514 37.9314 68.897 36.1899L67.863 36.1355V36.1355Z" fill="white"/>
</mask>
<g mask="url(#mask0_12_1312)">
<path d="M28.7343 36.1355H68.9514V44.8429H28.7343V36.1355Z" fill="url(#paint0_linear_12_1312)"/>
</g>
<mask id="mask1_12_1312" style="mask-type:luminance" maskUnits="userSpaceOnUse" x="9" y="39" width="15" height="6">
<path d="M9.57806 39.8906V40.1083C9.959 41.6865 13.1698 43.1015 17.9589 43.7545C19.1561 43.9178 20.0269 43.9722 21.3874 44.081C21.986 44.1355 23.7819 44.1899 23.7819 44.1899V43.8089C23.7819 43.8089 21.7139 43.7001 21.0609 43.7001C20.1901 43.6457 19.5915 43.6457 18.5575 43.4824C13.061 42.8294 10.1223 41.1967 9.959 39.945L9.57806 39.8906V39.8906Z" fill="white"/>
</mask>
<g mask="url(#mask1_12_1312)">
<path d="M22.6391 48.1083L8.43521 43.809L10.7753 35.918L25.0336 40.2716L22.6391 48.1083Z" fill="url(#paint1_linear_12_1312)"/>
</g>
</g>
</g>
<defs>
<filter id="filter0_dddd_12_1312" x="-11.9203" y="-1.98671" width="102.316" height="122.183" filterUnits="userSpaceOnUse" color-interpolation-filters="sRGB">
<feFlood flood-opacity="0" result="BackgroundImageFix"/>
<feColorMatrix in="SourceAlpha" type="matrix" values="0 0 0 0 0 0 0 0 0 0 0 0 0 0 0 0 0 0 127 0" result="hardAlpha"/>
<feOffset dy="1.98671"/>
<feGaussianBlur stdDeviation="1.98671"/>
<feColorMatrix type="matrix" values="0 0 0 0 0 0 0 0 0 0 0 0 0 0 0 0 0 0 0.15 0"/>
<feBlend mode="normal" in2="BackgroundImageFix" result="effect1_dropShadow_12_1312"/>
<feColorMatrix in="SourceAlpha" type="matrix" values="0 0 0 0 0 0 0 0 0 0 0 0 0 0 0 0 0 0 127 0" result="hardAlpha"/>
<feOffset dy="7.94684"/>
<feGaussianBlur stdDeviation="3.97342"/>
<feColorMatrix type="matrix" values="0 0 0 0 0 0 0 0 0 0 0 0 0 0 0 0 0 0 0.13 0"/>
<feBlend mode="normal" in2="effect1_dropShadow_12_1312" result="effect2_dropShadow_12_1312"/>
<feColorMatrix in="SourceAlpha" type="matrix" values="0 0 0 0 0 0 0 0 0 0 0 0 0 0 0 0 0 0 127 0" result="hardAlpha"/>
<feOffset dy="16.887"/>
<feGaussianBlur stdDeviation="4.96678"/>
<feColorMatrix type="matrix" values="0 0 0 0 0 0 0 0 0 0 0 0 0 0 0 0 0 0 0.08 0"/>
<feBlend mode="normal" in2="effect2_dropShadow_12_1312" result="effect3_dropShadow_12_1312"/>
<feColorMatrix in="SourceAlpha" type="matrix" values="0 0 0 0 0 0 0 0 0 0 0 0 0 0 0 0 0 0 127 0" result="hardAlpha"/>
<feOffset dy="29.8007"/>
<feGaussianBlur stdDeviation="5.96013"/>
<feColorMatrix type="matrix" values="0 0 0 0 0 0 0 0 0 0 0 0 0 0 0 0 0 0 0.02 0"/>
<feBlend mode="normal" in2="effect3_dropShadow_12_1312" result="effect4_dropShadow_12_1312"/>
<feBlend mode="normal" in="SourceGraphic" in2="effect4_dropShadow_12_1312" result="shape"/>
</filter>
<linearGradient id="paint0_linear_12_1312" x1="28.4001" y1="40.1708" x2="68.8226" y2="40.1708" gradientUnits="userSpaceOnUse">
<stop stop-color="#E4022C"/>
<stop offset="1" stop-color="#FEFEFE"/>
</linearGradient>
<linearGradient id="paint1_linear_12_1312" x1="22.3422" y1="43.7869" x2="16.0369" y2="41.8713" gradientUnits="userSpaceOnUse">
<stop stop-color="#E4022C"/>
<stop offset="1" stop-color="#FEFEFE"/>
</linearGradient>
<clipPath id="clip0_12_1312">
<rect width="78.5" height="78.5" fill="white"/>
</clipPath>
<clipPath id="clip1_12_1312">
<rect width="78.4751" height="78.4751" fill="white"/>
</clipPath>
</defs>
</svg>
