<svg width="271" height="124" viewBox="0 0 271 124" fill="none" xmlns="http://www.w3.org/2000/svg">
<path d="M111.811 68.3533V19.5783H143.057V26.985H120.647V40.2267H140.914V47.6334H120.647V68.3533H111.811ZM159.347 19.5783V68.3533H150.726V19.5783H159.347ZM191.529 52.9682V31.772H200.15V68.3533H191.791V61.8515H191.41C190.584 63.8997 189.226 65.5747 187.337 66.8767C185.464 68.1786 183.153 68.8296 180.407 68.8296C178.009 68.8296 175.89 68.2977 174.048 67.2339C172.222 66.1543 170.793 64.5904 169.761 62.5422C168.729 60.4781 168.213 57.9854 168.213 55.064V31.772H176.834V53.7303C176.834 56.0484 177.469 57.8901 178.74 59.2556C180.01 60.621 181.677 61.3038 183.741 61.3038C185.011 61.3038 186.242 60.9942 187.432 60.3749C188.623 59.7557 189.6 58.8348 190.362 57.6123C191.14 56.3739 191.529 54.8258 191.529 52.9682ZM216.065 31.772L223.448 45.2756L230.95 31.772H240.071L229.045 50.0626L240.262 68.3533H231.188L223.448 55.1831L215.779 68.3533H206.634L217.78 50.0626L206.92 31.772H216.065Z" fill="#E4022C"/>
<rect x="250.562" width="20.1197" height="20.1197" fill="#E4022C"/>
<g clip-path="url(#clip0_79_326)" filter="url(#filter0_dddd_79_326)">
<path d="M12 82H91V3H12V82Z" fill="#E4022C"/>
<path d="M81.3577 39.3772C81.3577 37.6789 78.1802 36.5284 72.0443 35.871C69.0859 35.5423 65.6344 35.3779 61.7447 35.3779C58.348 35.3779 54.787 35.4875 51.0068 35.7614C44.5422 36.1997 37.8584 37.0763 32.2704 38.2268C31.8321 38.3363 31.339 38.4459 30.9555 38.5555C30.6816 38.6102 30.4625 38.665 30.2433 38.7198C26.244 39.7059 21.3134 41.0756 21.6421 43.3218L22.0803 43.1574C21.9708 41.8974 25.1483 40.4182 30.3529 39.1581C30.7912 39.0485 31.1747 38.9937 31.6129 38.8842L32.4347 38.7198C37.3654 37.6789 43.83 36.8571 51.1164 36.4188C54.4583 36.1997 57.8002 36.0901 60.9777 36.0901C65.0866 36.0901 68.7572 36.2545 71.9347 36.638C78.0159 37.2954 80.2073 38.5007 80.262 39.3772H81.3577Z" fill="#FEFEFE"/>
<path d="M44.3778 31.5979H30.4076L24.1621 56.5799H38.2419L39.228 52.6901H29.805L31.6129 45.5133H39.6115L40.5976 41.6783H32.5442L34.0782 35.4876H43.3369L44.3778 31.5979Z" fill="#FEFEFE"/>
<path d="M42.9534 25.407C42.4055 25.407 41.8577 25.7357 40.8716 26.2835L40.762 26.3383L35.8313 29.2967L35.1191 29.735L35.9409 29.8446L37.0366 29.9541H37.0914L37.1462 29.8994L42.789 28.1462C43.4465 27.9819 44.1039 27.7627 44.2682 27.0505C44.3778 26.7218 44.323 26.3931 44.1039 26.1192C43.9395 25.7905 43.6656 25.6261 43.3369 25.5166C43.2273 25.4618 43.1178 25.407 42.9534 25.407Z" fill="#FEFEFE"/>
<path d="M51.7191 47.6497C51.2261 47.7045 50.3495 47.7593 49.3086 47.8141C49.0894 47.8141 48.8155 47.8688 48.5964 47.8688L47.1172 53.7308H51.7739L53.3079 47.4854C52.8148 47.5949 52.267 47.6497 51.7191 47.6497Z" fill="#FEFEFE"/>
<path d="M46.3504 28.749L45.3643 32.6388H52.3767L52.2124 33.2962L49.0349 46.1159C49.3088 46.1159 49.5279 46.0611 49.7471 46.0611C50.5688 46.0063 51.2263 45.9515 51.6098 45.8967C52.322 45.842 53.0889 45.7872 53.8012 45.7324L57.0335 32.6388H63.6077L64.4294 29.4064L64.5938 28.749H46.3504Z" fill="#FEFEFE"/>
<path d="M78.8925 28.6942C76.5916 27.3246 74.4002 26.9958 72.9758 26.9958C70.5652 26.9958 68.4834 27.8176 67.0042 29.2968C65.6894 30.6664 64.9224 32.4744 64.9224 34.3918C64.9224 36.5832 65.9085 38.172 67.059 39.432C67.6616 40.0895 68.2642 40.5825 68.8121 41.1304C69.3599 41.6234 69.853 42.1165 70.2913 42.7192L70.62 43.2122H70.7296C71.2226 43.1026 71.7157 42.9383 72.2088 42.8287C73.3045 42.5548 74.3454 42.2809 75.2219 41.9522C74.948 41.4591 74.6741 41.0756 74.4002 40.6921C73.9619 40.1443 73.4688 39.6512 73.0305 39.2129L72.2636 38.5007C71.8801 38.172 71.4418 37.7885 71.0583 37.405C70.2365 36.5284 69.5791 35.5423 69.5791 34.337C69.5791 32.6387 70.8939 30.8308 73.2497 30.8308C74.1262 30.8308 75.8794 31.1047 77.6873 32.8031L78.016 33.1318L78.1256 32.6935L79.0021 29.1325L79.0569 29.0229L79.1117 28.8038L78.8925 28.6942Z" fill="#FEFEFE"/>
<path d="M75.8246 43.5957C74.8384 43.9244 73.7975 44.1983 72.647 44.5271C72.3183 44.6366 71.9348 44.6914 71.6061 44.801C71.4966 44.8558 71.3322 44.8558 71.2226 44.9105C71.2774 45.0749 71.2774 45.2393 71.2774 45.4036C71.2774 47.4307 69.9626 49.4577 67.1138 49.4577C65.1963 49.4577 63.3884 48.6359 61.69 47.0472L61.3613 46.7185L61.2518 47.1567L60.2656 51.0465V51.2108L60.43 51.3204C60.5943 51.43 60.7039 51.4847 60.8683 51.5943C62.7857 52.69 65.0319 53.2927 67.3329 53.2927C73.0305 53.2927 75.9889 49.2933 75.9889 45.3488C76.0437 44.6914 75.9341 44.0888 75.8246 43.5957Z" fill="#FEFEFE"/>
<mask id="mask0_79_326" style="mask-type:luminance" maskUnits="userSpaceOnUse" x="40" y="39" width="42" height="10">
<path d="M80.3167 39.3772C80.3715 39.925 78.7279 41.4042 72.2633 43.0478C66.7848 44.4174 59.4436 45.5679 51.6094 46.1705C49.9658 46.2801 42.789 46.7732 41.0906 46.828H40.9811L40.9263 47.2115V48.1428H40.9811C42.6794 48.088 49.911 47.5402 51.7189 47.4306C57.2522 46.9923 62.6759 46.3349 67.2779 45.4583C69.1953 45.0748 70.9485 44.6913 72.592 44.3078C78.5088 42.7739 81.4124 41.1851 81.3576 39.432L80.3167 39.3772V39.3772Z" fill="white"/>
</mask>
<g mask="url(#mask0_79_326)">
<path d="M40.9263 39.3772H81.4124V48.1428H40.9263V39.3772Z" fill="url(#paint0_linear_79_326)"/>
</g>
<mask id="mask1_79_326" style="mask-type:luminance" maskUnits="userSpaceOnUse" x="21" y="43" width="15" height="5">
<path d="M21.6421 43.1575V43.3766C22.0256 44.9654 25.2579 46.3898 30.079 47.0472C31.2843 47.2116 32.1608 47.2663 33.5304 47.3759C34.1331 47.4307 35.941 47.4855 35.941 47.4855V47.102C35.941 47.102 33.8592 46.9924 33.2017 46.9924C32.3252 46.9376 31.7225 46.9376 30.6816 46.7733C25.1483 46.1159 22.1899 44.4723 22.0256 43.2123L21.6421 43.1575V43.1575Z" fill="white"/>
</mask>
<g mask="url(#mask1_79_326)">
<path d="M34.7906 51.43L20.4917 47.102L22.8475 39.1582L37.2011 43.541L34.7906 51.43Z" fill="url(#paint1_linear_79_326)"/>
</g>
</g>
<defs>
<filter id="filter0_dddd_79_326" x="0" y="1" width="103" height="123" filterUnits="userSpaceOnUse" color-interpolation-filters="sRGB">
<feFlood flood-opacity="0" result="BackgroundImageFix"/>
<feColorMatrix in="SourceAlpha" type="matrix" values="0 0 0 0 0 0 0 0 0 0 0 0 0 0 0 0 0 0 127 0" result="hardAlpha"/>
<feOffset dy="2"/>
<feGaussianBlur stdDeviation="2"/>
<feColorMatrix type="matrix" values="0 0 0 0 0 0 0 0 0 0 0 0 0 0 0 0 0 0 0.15 0"/>
<feBlend mode="normal" in2="BackgroundImageFix" result="effect1_dropShadow_79_326"/>
<feColorMatrix in="SourceAlpha" type="matrix" values="0 0 0 0 0 0 0 0 0 0 0 0 0 0 0 0 0 0 127 0" result="hardAlpha"/>
<feOffset dy="8"/>
<feGaussianBlur stdDeviation="4"/>
<feColorMatrix type="matrix" values="0 0 0 0 0 0 0 0 0 0 0 0 0 0 0 0 0 0 0.13 0"/>
<feBlend mode="normal" in2="effect1_dropShadow_79_326" result="effect2_dropShadow_79_326"/>
<feColorMatrix in="SourceAlpha" type="matrix" values="0 0 0 0 0 0 0 0 0 0 0 0 0 0 0 0 0 0 127 0" result="hardAlpha"/>
<feOffset dy="17"/>
<feGaussianBlur stdDeviation="5"/>
<feColorMatrix type="matrix" values="0 0 0 0 0 0 0 0 0 0 0 0 0 0 0 0 0 0 0.08 0"/>
<feBlend mode="normal" in2="effect2_dropShadow_79_326" result="effect3_dropShadow_79_326"/>
<feColorMatrix in="SourceAlpha" type="matrix" values="0 0 0 0 0 0 0 0 0 0 0 0 0 0 0 0 0 0 127 0" result="hardAlpha"/>
<feOffset dy="30"/>
<feGaussianBlur stdDeviation="6"/>
<feColorMatrix type="matrix" values="0 0 0 0 0 0 0 0 0 0 0 0 0 0 0 0 0 0 0.02 0"/>
<feBlend mode="normal" in2="effect3_dropShadow_79_326" result="effect4_dropShadow_79_326"/>
<feBlend mode="normal" in="SourceGraphic" in2="effect4_dropShadow_79_326" result="shape"/>
</filter>
<linearGradient id="paint0_linear_79_326" x1="40.5898" y1="43.4395" x2="81.2828" y2="43.4395" gradientUnits="userSpaceOnUse">
<stop stop-color="#E4022C"/>
<stop offset="1" stop-color="#FEFEFE"/>
</linearGradient>
<linearGradient id="paint1_linear_79_326" x1="34.4917" y1="47.0797" x2="28.1443" y2="45.1513" gradientUnits="userSpaceOnUse">
<stop stop-color="#E4022C"/>
<stop offset="1" stop-color="#FEFEFE"/>
</linearGradient>
<clipPath id="clip0_79_326">
<rect width="79" height="79" fill="white" transform="translate(12 3)"/>
</clipPath>
</defs>
</svg>
