<svg width="234" height="123" viewBox="0 0 234 123" fill="none" xmlns="http://www.w3.org/2000/svg">
<g clip-path="url(#clip0_39_331)" filter="url(#filter0_dddd_39_331)">
<path d="M12 81H91V2H12V81Z" fill="#E4022C"/>
<path d="M81.3577 38.3772C81.3577 36.6789 78.1802 35.5284 72.0443 34.871C69.0859 34.5423 65.6344 34.3779 61.7447 34.3779C58.348 34.3779 54.787 34.4875 51.0068 34.7614C44.5422 35.1997 37.8584 36.0763 32.2704 37.2268C31.8321 37.3363 31.339 37.4459 30.9555 37.5555C30.6816 37.6102 30.4625 37.665 30.2433 37.7198C26.244 38.7059 21.3134 40.0756 21.6421 42.3218L22.0803 42.1574C21.9708 40.8974 25.1483 39.4182 30.3529 38.1581C30.7912 38.0485 31.1747 37.9937 31.6129 37.8842L32.4347 37.7198C37.3654 36.6789 43.83 35.8571 51.1164 35.4188C54.4583 35.1997 57.8002 35.0901 60.9777 35.0901C65.0866 35.0901 68.7572 35.2545 71.9347 35.638C78.0159 36.2954 80.2073 37.5007 80.262 38.3772H81.3577Z" fill="#FEFEFE"/>
<path d="M44.378 30.5979H30.4078L24.1624 55.5799H38.2421L39.2282 51.6901H29.8052L31.6131 44.5133H39.6117L40.5979 40.6783H32.5445L34.0784 34.4876H43.3371L44.378 30.5979Z" fill="#FEFEFE"/>
<path d="M42.9536 24.407C42.4058 24.407 41.8579 24.7357 40.8718 25.2835L40.7622 25.3383L35.8316 28.2967L35.1194 28.735L35.9412 28.8446L37.0369 28.9541H37.0916L37.1464 28.8994L42.7893 27.1462C43.4467 26.9819 44.1041 26.7627 44.2685 26.0505C44.3781 25.7218 44.3233 25.3931 44.1041 25.1192C43.9398 24.7905 43.6658 24.6261 43.3371 24.5166C43.2276 24.4618 43.118 24.407 42.9536 24.407Z" fill="#FEFEFE"/>
<path d="M51.7191 46.6497C51.2261 46.7045 50.3495 46.7593 49.3086 46.8141C49.0894 46.8141 48.8155 46.8688 48.5964 46.8688L47.1172 52.7308H51.7739L53.3079 46.4854C52.8148 46.5949 52.267 46.6497 51.7191 46.6497Z" fill="#FEFEFE"/>
<path d="M46.3501 27.749L45.364 31.6388H52.3765L52.2121 32.2962L49.0346 45.1159C49.3085 45.1159 49.5277 45.0611 49.7468 45.0611C50.5686 45.0063 51.226 44.9515 51.6095 44.8967C52.3217 44.842 53.0887 44.7872 53.8009 44.7324L57.0332 31.6388H63.6074L64.4292 28.4064L64.5936 27.749H46.3501Z" fill="#FEFEFE"/>
<path d="M78.8925 27.6942C76.5916 26.3246 74.4002 25.9958 72.9758 25.9958C70.5652 25.9958 68.4834 26.8176 67.0042 28.2968C65.6894 29.6664 64.9224 31.4744 64.9224 33.3918C64.9224 35.5832 65.9085 37.172 67.059 38.432C67.6616 39.0895 68.2642 39.5825 68.8121 40.1304C69.3599 40.6234 69.853 41.1165 70.2913 41.7192L70.62 42.2122H70.7296C71.2226 42.1026 71.7157 41.9383 72.2088 41.8287C73.3045 41.5548 74.3454 41.2809 75.2219 40.9522C74.948 40.4591 74.6741 40.0756 74.4002 39.6921C73.9619 39.1443 73.4688 38.6512 73.0305 38.2129L72.2636 37.5007C71.8801 37.172 71.4418 36.7885 71.0583 36.405C70.2365 35.5284 69.5791 34.5423 69.5791 33.337C69.5791 31.6387 70.8939 29.8308 73.2497 29.8308C74.1262 29.8308 75.8794 30.1047 77.6873 31.8031L78.016 32.1318L78.1256 31.6935L79.0021 28.1325L79.0569 28.0229L79.1117 27.8038L78.8925 27.6942Z" fill="#FEFEFE"/>
<path d="M75.8246 42.5957C74.8384 42.9244 73.7975 43.1983 72.647 43.5271C72.3183 43.6366 71.9348 43.6914 71.6061 43.801C71.4966 43.8558 71.3322 43.8558 71.2226 43.9105C71.2774 44.0749 71.2774 44.2393 71.2774 44.4036C71.2774 46.4307 69.9626 48.4577 67.1138 48.4577C65.1963 48.4577 63.3884 47.6359 61.69 46.0472L61.3613 45.7185L61.2518 46.1567L60.2656 50.0465V50.2108L60.43 50.3204C60.5943 50.43 60.7039 50.4847 60.8683 50.5943C62.7857 51.69 65.0319 52.2927 67.3329 52.2927C73.0305 52.2927 75.9889 48.2933 75.9889 44.3488C76.0437 43.6914 75.9341 43.0888 75.8246 42.5957Z" fill="#FEFEFE"/>
<mask id="mask0_39_331" style="mask-type:luminance" maskUnits="userSpaceOnUse" x="40" y="38" width="42" height="10">
<path d="M80.3169 38.3772C80.3717 38.925 78.7282 40.4042 72.2635 42.0478C66.785 43.4174 59.4439 44.5679 51.6096 45.1705C49.966 45.2801 42.7892 45.7732 41.0909 45.828H40.9813L40.9265 46.2115V47.1428H40.9813C42.6796 47.088 49.9113 46.5402 51.7192 46.4306C57.2525 45.9923 62.6762 45.3349 67.2781 44.4583C69.1956 44.0748 70.9487 43.6913 72.5923 43.3078C78.509 41.7739 81.4126 40.1851 81.3579 38.432L80.3169 38.3772V38.3772Z" fill="white"/>
</mask>
<g mask="url(#mask0_39_331)">
<path d="M40.9265 38.3772H81.4126V47.1428H40.9265V38.3772Z" fill="url(#paint0_linear_39_331)"/>
</g>
<mask id="mask1_39_331" style="mask-type:luminance" maskUnits="userSpaceOnUse" x="21" y="42" width="15" height="5">
<path d="M21.6421 42.1575V42.3766C22.0256 43.9654 25.2579 45.3898 30.079 46.0472C31.2843 46.2116 32.1608 46.2663 33.5304 46.3759C34.1331 46.4307 35.941 46.4855 35.941 46.4855V46.102C35.941 46.102 33.8592 45.9924 33.2017 45.9924C32.3252 45.9376 31.7225 45.9376 30.6816 45.7733C25.1483 45.1159 22.1899 43.4723 22.0256 42.2123L21.6421 42.1575V42.1575Z" fill="white"/>
</mask>
<g mask="url(#mask1_39_331)">
<path d="M34.7906 50.43L20.4917 46.102L22.8475 38.1582L37.2011 42.541L34.7906 50.43Z" fill="url(#paint1_linear_39_331)"/>
</g>
</g>
<path d="M129.633 37.4108C129.543 36.5718 129.165 35.9186 128.499 35.4511C127.839 34.9836 126.981 34.7498 125.924 34.7498C125.182 34.7498 124.544 34.8619 124.013 35.086C123.481 35.3102 123.075 35.6144 122.793 35.9986C122.511 36.3829 122.367 36.8216 122.36 37.3147C122.36 37.7246 122.453 38.0801 122.639 38.3811C122.831 38.6821 123.091 38.9382 123.417 39.1496C123.744 39.3545 124.106 39.5274 124.503 39.6683C124.9 39.8092 125.3 39.9277 125.704 40.0238L127.548 40.4849C128.291 40.6578 129.005 40.8916 129.69 41.1862C130.382 41.4808 131 41.8522 131.544 42.3005C132.095 42.7488 132.531 43.29 132.851 43.924C133.171 44.5581 133.331 45.301 133.331 46.1528C133.331 47.3055 133.037 48.3206 132.447 49.198C131.858 50.069 131.006 50.7511 129.892 51.2442C128.784 51.731 127.442 51.9743 125.867 51.9743C124.336 51.9743 123.007 51.7374 121.88 51.2634C120.759 50.7895 119.882 50.0978 119.248 49.1884C118.62 48.279 118.281 47.171 118.23 45.8646H121.736C121.787 46.5498 121.999 47.1198 122.37 47.5745C122.742 48.0292 123.225 48.3687 123.821 48.5928C124.423 48.817 125.095 48.929 125.838 48.929C126.613 48.929 127.292 48.8138 127.875 48.5832C128.464 48.3462 128.925 48.0196 129.258 47.6033C129.591 47.1807 129.761 46.6875 129.767 46.1239C129.761 45.6116 129.61 45.1889 129.316 44.8559C129.021 44.5164 128.608 44.2347 128.076 44.0105C127.551 43.7799 126.936 43.575 126.232 43.3957L123.994 42.8193C122.373 42.403 121.092 41.7722 120.151 40.9268C119.216 40.075 118.748 38.9447 118.748 37.5357C118.748 36.3765 119.062 35.3614 119.69 34.4904C120.324 33.6194 121.185 32.9438 122.274 32.4634C123.363 31.9767 124.596 31.7333 125.973 31.7333C127.369 31.7333 128.592 31.9767 129.642 32.4634C130.699 32.9438 131.528 33.613 132.13 34.4712C132.732 35.323 133.043 36.3029 133.062 37.4108H129.633ZM136.355 51.6765V36.9209H139.832V51.6765H136.355ZM138.103 34.8267C137.552 34.8267 137.078 34.6441 136.681 34.2791C136.284 33.9076 136.086 33.4625 136.086 32.9438C136.086 32.4186 136.284 31.9735 136.681 31.6085C137.078 31.237 137.552 31.0513 138.103 31.0513C138.66 31.0513 139.134 31.237 139.525 31.6085C139.922 31.9735 140.121 32.4186 140.121 32.9438C140.121 33.4625 139.922 33.9076 139.525 34.2791C139.134 34.6441 138.66 34.8267 138.103 34.8267ZM149.826 57.5173C148.577 57.5173 147.504 57.3476 146.607 57.0081C145.711 56.6751 144.99 56.2268 144.446 55.6632C143.902 55.0996 143.524 54.4752 143.312 53.79L146.444 53.031C146.585 53.3192 146.79 53.6042 147.059 53.886C147.328 54.1742 147.69 54.4112 148.144 54.5969C148.606 54.789 149.185 54.8851 149.883 54.8851C150.869 54.8851 151.686 54.6449 152.333 54.1646C152.98 53.6907 153.303 52.9094 153.303 51.8206V49.0251H153.13C152.951 49.3838 152.688 49.752 152.342 50.1299C152.003 50.5077 151.552 50.8247 150.988 51.0809C150.431 51.3371 149.729 51.4652 148.884 51.4652C147.751 51.4652 146.723 51.1994 145.8 50.6678C144.885 50.1299 144.154 49.3293 143.61 48.2662C143.072 47.1967 142.803 45.8582 142.803 44.2507C142.803 42.6304 143.072 41.263 143.61 40.1487C144.154 39.0279 144.888 38.1793 145.81 37.6029C146.732 37.0201 147.76 36.7287 148.894 36.7287C149.758 36.7287 150.469 36.876 151.026 37.1706C151.59 37.4588 152.038 37.8079 152.371 38.2178C152.704 38.6212 152.957 39.0023 153.13 39.3609H153.322V36.9209H156.752V51.9167C156.752 53.1783 156.451 54.2222 155.849 55.0484C155.247 55.8746 154.424 56.4926 153.38 56.9025C152.336 57.3123 151.151 57.5173 149.826 57.5173ZM149.854 48.7369C150.591 48.7369 151.218 48.5576 151.737 48.1989C152.256 47.8403 152.65 47.3248 152.919 46.6523C153.188 45.9798 153.322 45.1729 153.322 44.2314C153.322 43.3028 153.188 42.4895 152.919 41.7914C152.656 41.0933 152.266 40.5521 151.747 40.1679C151.234 39.7772 150.604 39.5819 149.854 39.5819C149.079 39.5819 148.433 39.7836 147.914 40.1871C147.395 40.5906 147.004 41.1445 146.742 41.849C146.479 42.5471 146.348 43.3412 146.348 44.2314C146.348 45.1345 146.479 45.9254 146.742 46.6043C147.011 47.2767 147.405 47.8019 147.923 48.1797C148.449 48.5512 149.092 48.7369 149.854 48.7369ZM163.793 43.0306V51.6765H160.316V36.9209H163.64V39.4282H163.813C164.152 38.602 164.693 37.9456 165.436 37.4588C166.185 36.9721 167.111 36.7287 168.212 36.7287C169.231 36.7287 170.118 36.9465 170.873 37.382C171.636 37.8175 172.225 38.4483 172.641 39.2745C173.064 40.1006 173.272 41.1029 173.265 42.2813V51.6765H169.788V42.8193C169.788 41.833 169.532 41.0613 169.019 40.5041C168.513 39.9469 167.812 39.6683 166.916 39.6683C166.307 39.6683 165.766 39.8028 165.292 40.0718C164.825 40.3344 164.456 40.7155 164.187 41.215C163.925 41.7145 163.793 42.3197 163.793 43.0306ZM181.047 51.9743C180.112 51.9743 179.27 51.8078 178.52 51.4748C177.777 51.1353 177.188 50.6358 176.753 49.9762C176.324 49.3165 176.109 48.5032 176.109 47.5361C176.109 46.7035 176.263 46.0151 176.57 45.4707C176.878 44.9263 177.297 44.4908 177.829 44.1642C178.36 43.8376 178.959 43.591 179.625 43.4245C180.297 43.2516 180.992 43.1267 181.71 43.0498C182.574 42.9602 183.275 42.8801 183.813 42.8097C184.351 42.7328 184.742 42.6176 184.985 42.4638C185.235 42.3037 185.36 42.0572 185.36 41.7241V41.6665C185.36 40.9428 185.146 40.3824 184.716 39.9854C184.287 39.5883 183.669 39.3898 182.862 39.3898C182.011 39.3898 181.335 39.5755 180.835 39.9469C180.342 40.3184 180.009 40.7571 179.836 41.263L176.589 40.8019C176.846 39.9053 177.268 39.156 177.857 38.554C178.447 37.9456 179.167 37.4909 180.019 37.1899C180.871 36.8825 181.812 36.7287 182.843 36.7287C183.554 36.7287 184.262 36.812 184.966 36.9785C185.671 37.145 186.314 37.4204 186.897 37.8047C187.48 38.1825 187.947 38.6981 188.3 39.3513C188.658 40.0046 188.838 40.8211 188.838 41.801V51.6765H185.495V49.6495H185.379C185.168 50.0594 184.87 50.4437 184.486 50.8023C184.108 51.1546 183.631 51.4396 183.055 51.6573C182.485 51.8686 181.815 51.9743 181.047 51.9743ZM181.95 49.419C182.648 49.419 183.253 49.2813 183.765 49.0059C184.278 48.7241 184.672 48.3527 184.947 47.8915C185.229 47.4304 185.37 46.9277 185.37 46.3833V44.6445C185.261 44.7342 185.075 44.8174 184.813 44.8943C184.556 44.9712 184.268 45.0384 183.948 45.096C183.628 45.1537 183.311 45.2049 182.997 45.2497C182.683 45.2946 182.411 45.333 182.18 45.365C181.662 45.4355 181.197 45.5507 180.787 45.7109C180.378 45.871 180.054 46.0951 179.817 46.3833C179.58 46.6651 179.462 47.0302 179.462 47.4785C179.462 48.1189 179.695 48.6024 180.163 48.929C180.63 49.2557 181.226 49.419 181.95 49.419ZM198.752 57.5173C197.503 57.5173 196.43 57.3476 195.533 57.0081C194.637 56.6751 193.916 56.2268 193.372 55.6632C192.828 55.0996 192.45 54.4752 192.238 53.79L195.37 53.031C195.511 53.3192 195.716 53.6042 195.985 53.886C196.254 54.1742 196.616 54.4112 197.07 54.5969C197.532 54.789 198.111 54.8851 198.809 54.8851C199.796 54.8851 200.612 54.6449 201.259 54.1646C201.906 53.6907 202.229 52.9094 202.229 51.8206V49.0251H202.056C201.877 49.3838 201.614 49.752 201.269 50.1299C200.929 50.5077 200.478 50.8247 199.914 51.0809C199.357 51.3371 198.656 51.4652 197.81 51.4652C196.677 51.4652 195.649 51.1994 194.726 50.6678C193.811 50.1299 193.081 49.3293 192.536 48.2662C191.998 47.1967 191.729 45.8582 191.729 44.2507C191.729 42.6304 191.998 41.263 192.536 40.1487C193.081 39.0279 193.814 38.1793 194.736 37.6029C195.658 37.0201 196.686 36.7287 197.82 36.7287C198.684 36.7287 199.395 36.876 199.952 37.1706C200.516 37.4588 200.964 37.8079 201.297 38.2178C201.63 38.6212 201.883 39.0023 202.056 39.3609H202.248V36.9209H205.678V51.9167C205.678 53.1783 205.377 54.2222 204.775 55.0484C204.173 55.8746 203.35 56.4926 202.306 56.9025C201.262 57.3123 200.077 57.5173 198.752 57.5173ZM198.78 48.7369C199.517 48.7369 200.145 48.5576 200.663 48.1989C201.182 47.8403 201.576 47.3248 201.845 46.6523C202.114 45.9798 202.248 45.1729 202.248 44.2314C202.248 43.3028 202.114 42.4895 201.845 41.7914C201.582 41.0933 201.192 40.5521 200.673 40.1679C200.161 39.7772 199.53 39.5819 198.78 39.5819C198.006 39.5819 197.359 39.7836 196.84 40.1871C196.321 40.5906 195.93 41.1445 195.668 41.849C195.405 42.5471 195.274 43.3412 195.274 44.2314C195.274 45.1345 195.405 45.9254 195.668 46.6043C195.937 47.2767 196.331 47.8019 196.85 48.1797C197.375 48.5512 198.018 48.7369 198.78 48.7369ZM215.774 51.9647C214.295 51.9647 213.017 51.6573 211.941 51.0425C210.872 50.4213 210.049 49.5439 209.473 48.4103C208.896 47.2703 208.608 45.9286 208.608 44.3852C208.608 42.8673 208.896 41.5352 209.473 40.3888C210.055 39.2361 210.869 38.3394 211.913 37.699C212.956 37.0522 214.183 36.7287 215.592 36.7287C216.501 36.7287 217.359 36.876 218.166 37.1706C218.98 37.4588 219.697 37.9071 220.318 38.5156C220.946 39.124 221.439 39.8989 221.798 40.8403C222.156 41.7754 222.336 42.8897 222.336 44.1834V45.2497H210.241V42.9057H219.002C218.996 42.2397 218.852 41.6473 218.57 41.1285C218.288 40.6034 217.894 40.1903 217.388 39.8893C216.889 39.5883 216.306 39.4378 215.64 39.4378C214.929 39.4378 214.305 39.6107 213.767 39.9565C213.229 40.296 212.809 40.7443 212.508 41.3015C212.214 41.8522 212.063 42.4574 212.057 43.1171V45.1633C212.057 46.0215 212.214 46.758 212.527 47.3728C212.841 47.9812 213.28 48.4487 213.843 48.7753C214.407 49.0956 215.067 49.2557 215.822 49.2557C216.328 49.2557 216.786 49.1852 217.196 49.0443C217.606 48.897 217.961 48.6825 218.262 48.4007C218.563 48.1189 218.791 47.7699 218.945 47.3536L222.192 47.7186C221.987 48.5768 221.596 49.3261 221.02 49.9666C220.45 50.6006 219.719 51.0937 218.829 51.446C217.939 51.7918 216.921 51.9647 215.774 51.9647Z" fill="#E4022C"/>
<rect x="225.884" y="24.3237" width="8.1156" height="8.1156" fill="#E4022C"/>
<defs>
<filter id="filter0_dddd_39_331" x="0" y="0" width="103" height="123" filterUnits="userSpaceOnUse" color-interpolation-filters="sRGB">
<feFlood flood-opacity="0" result="BackgroundImageFix"/>
<feColorMatrix in="SourceAlpha" type="matrix" values="0 0 0 0 0 0 0 0 0 0 0 0 0 0 0 0 0 0 127 0" result="hardAlpha"/>
<feOffset dy="2"/>
<feGaussianBlur stdDeviation="2"/>
<feColorMatrix type="matrix" values="0 0 0 0 0 0 0 0 0 0 0 0 0 0 0 0 0 0 0.15 0"/>
<feBlend mode="normal" in2="BackgroundImageFix" result="effect1_dropShadow_39_331"/>
<feColorMatrix in="SourceAlpha" type="matrix" values="0 0 0 0 0 0 0 0 0 0 0 0 0 0 0 0 0 0 127 0" result="hardAlpha"/>
<feOffset dy="8"/>
<feGaussianBlur stdDeviation="4"/>
<feColorMatrix type="matrix" values="0 0 0 0 0 0 0 0 0 0 0 0 0 0 0 0 0 0 0.13 0"/>
<feBlend mode="normal" in2="effect1_dropShadow_39_331" result="effect2_dropShadow_39_331"/>
<feColorMatrix in="SourceAlpha" type="matrix" values="0 0 0 0 0 0 0 0 0 0 0 0 0 0 0 0 0 0 127 0" result="hardAlpha"/>
<feOffset dy="17"/>
<feGaussianBlur stdDeviation="5"/>
<feColorMatrix type="matrix" values="0 0 0 0 0 0 0 0 0 0 0 0 0 0 0 0 0 0 0.08 0"/>
<feBlend mode="normal" in2="effect2_dropShadow_39_331" result="effect3_dropShadow_39_331"/>
<feColorMatrix in="SourceAlpha" type="matrix" values="0 0 0 0 0 0 0 0 0 0 0 0 0 0 0 0 0 0 127 0" result="hardAlpha"/>
<feOffset dy="30"/>
<feGaussianBlur stdDeviation="6"/>
<feColorMatrix type="matrix" values="0 0 0 0 0 0 0 0 0 0 0 0 0 0 0 0 0 0 0.02 0"/>
<feBlend mode="normal" in2="effect3_dropShadow_39_331" result="effect4_dropShadow_39_331"/>
<feBlend mode="normal" in="SourceGraphic" in2="effect4_dropShadow_39_331" result="shape"/>
</filter>
<linearGradient id="paint0_linear_39_331" x1="40.5901" y1="42.4395" x2="81.283" y2="42.4395" gradientUnits="userSpaceOnUse">
<stop stop-color="#E4022C"/>
<stop offset="1" stop-color="#FEFEFE"/>
</linearGradient>
<linearGradient id="paint1_linear_39_331" x1="34.4917" y1="46.0797" x2="28.1443" y2="44.1513" gradientUnits="userSpaceOnUse">
<stop stop-color="#E4022C"/>
<stop offset="1" stop-color="#FEFEFE"/>
</linearGradient>
<clipPath id="clip0_39_331">
<rect width="79" height="79" fill="white" transform="translate(12 2)"/>
</clipPath>
</defs>
</svg>
