<svg width="99" height="24" viewBox="0 0 99 24" fill="none" xmlns="http://www.w3.org/2000/svg">
<g clip-path="url(#clip0_22_326)">
<path d="M12 1.5C11.4091 1.5 10.8239 1.6164 10.2779 1.84254C9.73196 2.06869 9.23588 2.40016 8.81802 2.81802C8.40016 3.23588 8.06869 3.73196 7.84254 4.27792C7.6164 4.82389 7.5 5.40905 7.5 6C7.5 6.59095 7.6164 7.17611 7.84254 7.72208C8.06869 8.26804 8.40016 8.76412 8.81802 9.18198C9.23588 9.59984 9.73196 9.93131 10.2779 10.1575C10.8239 10.3836 11.4091 10.5 12 10.5C12.5909 10.5 13.1761 10.3836 13.7221 10.1575C14.268 9.93131 14.7641 9.59984 15.182 9.18198C15.5998 8.76412 15.9313 8.26804 16.1575 7.72208C16.3836 7.17611 16.5 6.59095 16.5 6C16.5 5.40905 16.3836 4.82389 16.1575 4.27792C15.9313 3.73196 15.5998 3.23588 15.182 2.81802C14.7641 2.40016 14.268 2.06869 13.7221 1.84254C13.1761 1.6164 12.5909 1.5 12 1.5ZM16.5 13.5H7.5C5.0145 13.5 3 15.5145 3 18V22.5H21V18C21 15.5145 18.9855 13.5 16.5 13.5Z" fill="#B1B1B1"/>
<path d="M12 1.5C11.4091 1.5 10.8239 1.6164 10.2779 1.84254C9.73196 2.06869 9.23588 2.40016 8.81802 2.81802C8.40016 3.23588 8.06869 3.73196 7.84254 4.27792C7.6164 4.82389 7.5 5.40905 7.5 6C7.5 6.59095 7.6164 7.17611 7.84254 7.72208C8.06869 8.26804 8.40016 8.76412 8.81802 9.18198C9.23588 9.59984 9.73196 9.93131 10.2779 10.1575C10.8239 10.3836 11.4091 10.5 12 10.5C12.5909 10.5 13.1761 10.3836 13.7221 10.1575C14.268 9.93131 14.7641 9.59984 15.182 9.18198C15.5998 8.76412 15.9313 8.26804 16.1575 7.72208C16.3836 7.17611 16.5 6.59095 16.5 6C16.5 5.40905 16.3836 4.82389 16.1575 4.27792C15.9313 3.73196 15.5998 3.23588 15.182 2.81802C14.7641 2.40016 14.268 2.06869 13.7221 1.84254C13.1761 1.6164 12.5909 1.5 12 1.5ZM16.5 13.5H7.5C5.0145 13.5 3 15.5145 3 18V22.5H21V18C21 15.5145 18.9855 13.5 16.5 13.5Z" fill="#3DC342"/>
</g>
<path d="M37 1.5C36.4091 1.5 35.8239 1.6164 35.2779 1.84254C34.732 2.06869 34.2359 2.40016 33.818 2.81802C33.4002 3.23588 33.0687 3.73196 32.8425 4.27792C32.6164 4.82389 32.5 5.40905 32.5 6C32.5 6.59095 32.6164 7.17611 32.8425 7.72208C33.0687 8.26804 33.4002 8.76412 33.818 9.18198C34.2359 9.59984 34.732 9.93131 35.2779 10.1575C35.8239 10.3836 36.4091 10.5 37 10.5C37.5909 10.5 38.1761 10.3836 38.7221 10.1575C39.268 9.93131 39.7641 9.59984 40.182 9.18198C40.5998 8.76412 40.9313 8.26804 41.1575 7.72208C41.3836 7.17611 41.5 6.59095 41.5 6C41.5 5.40905 41.3836 4.82389 41.1575 4.27792C40.9313 3.73196 40.5998 3.23588 40.182 2.81802C39.7641 2.40016 39.268 2.06869 38.7221 1.84254C38.1761 1.6164 37.5909 1.5 37 1.5ZM41.5 13.5H32.5C30.0145 13.5 28 15.5145 28 18V22.5H46V18C46 15.5145 43.9855 13.5 41.5 13.5Z" fill="#3DC342"/>
<path d="M62 1.5C61.4091 1.5 60.8239 1.6164 60.2779 1.84254C59.732 2.06869 59.2359 2.40016 58.818 2.81802C58.4002 3.23588 58.0687 3.73196 57.8425 4.27792C57.6164 4.82389 57.5 5.40905 57.5 6C57.5 6.59095 57.6164 7.17611 57.8425 7.72208C58.0687 8.26804 58.4002 8.76412 58.818 9.18198C59.2359 9.59984 59.732 9.93131 60.2779 10.1575C60.8239 10.3836 61.4091 10.5 62 10.5C62.5909 10.5 63.1761 10.3836 63.7221 10.1575C64.268 9.93131 64.7641 9.59984 65.182 9.18198C65.5998 8.76412 65.9313 8.26804 66.1575 7.72208C66.3836 7.17611 66.5 6.59095 66.5 6C66.5 5.40905 66.3836 4.82389 66.1575 4.27792C65.9313 3.73196 65.5998 3.23588 65.182 2.81802C64.7641 2.40016 64.268 2.06869 63.7221 1.84254C63.1761 1.6164 62.5909 1.5 62 1.5ZM66.5 13.5H57.5C55.0145 13.5 53 15.5145 53 18V22.5H71V18C71 15.5145 68.9855 13.5 66.5 13.5Z" fill="#B1B1B1"/>
<path d="M87 1.5C86.4091 1.5 85.8239 1.6164 85.2779 1.84254C84.732 2.06869 84.2359 2.40016 83.818 2.81802C83.4002 3.23588 83.0687 3.73196 82.8425 4.27792C82.6164 4.82389 82.5 5.40905 82.5 6C82.5 6.59095 82.6164 7.17611 82.8425 7.72208C83.0687 8.26804 83.4002 8.76412 83.818 9.18198C84.2359 9.59984 84.732 9.93131 85.2779 10.1575C85.8239 10.3836 86.4091 10.5 87 10.5C87.5909 10.5 88.1761 10.3836 88.7221 10.1575C89.268 9.93131 89.7641 9.59984 90.182 9.18198C90.5998 8.76412 90.9313 8.26804 91.1575 7.72208C91.3836 7.17611 91.5 6.59095 91.5 6C91.5 5.40905 91.3836 4.82389 91.1575 4.27792C90.9313 3.73196 90.5998 3.23588 90.182 2.81802C89.7641 2.40016 89.268 2.06869 88.7221 1.84254C88.1761 1.6164 87.5909 1.5 87 1.5ZM91.5 13.5H82.5C80.0145 13.5 78 15.5145 78 18V22.5H96V18C96 15.5145 93.9855 13.5 91.5 13.5Z" fill="#B1B1B1"/>
<defs>
<clipPath id="clip0_22_326">
<rect width="24" height="24" fill="white"/>
</clipPath>
</defs>
</svg>
