<svg width="173" height="50" viewBox="0 0 173 50" fill="none" xmlns="http://www.w3.org/2000/svg">
<path d="M18.679 19.9062C18.5464 18.6657 17.9877 17.6998 17.0028 17.0085C16.0275 16.3172 14.7585 15.9716 13.196 15.9716C12.0975 15.9716 11.1553 16.1373 10.3693 16.4688C9.58333 16.8002 8.98201 17.25 8.56534 17.8182C8.14867 18.3864 7.93561 19.035 7.92614 19.7642C7.92614 20.3703 8.06345 20.8958 8.33807 21.3409C8.62216 21.786 9.00568 22.1648 9.48864 22.4773C9.97159 22.7803 10.5066 23.036 11.0938 23.2443C11.6809 23.4527 12.2727 23.6278 12.8693 23.7699L15.5966 24.4517C16.6951 24.7074 17.7509 25.053 18.7642 25.4886C19.7869 25.9242 20.7008 26.4735 21.5057 27.1364C22.3201 27.7992 22.964 28.5994 23.4375 29.5369C23.911 30.4744 24.1477 31.5729 24.1477 32.8324C24.1477 34.5369 23.7121 36.0379 22.8409 37.3352C21.9697 38.6231 20.7102 39.6316 19.0625 40.3608C17.4242 41.0805 15.4403 41.4403 13.1108 41.4403C10.8475 41.4403 8.88258 41.09 7.21591 40.3892C5.55871 39.6884 4.26136 38.6657 3.32386 37.321C2.39583 35.9763 1.89394 34.3381 1.81818 32.4062H7.00284C7.0786 33.4195 7.3911 34.2623 7.94034 34.9347C8.48958 35.607 9.20455 36.1089 10.0852 36.4403C10.9754 36.7718 11.9697 36.9375 13.0682 36.9375C14.214 36.9375 15.2178 36.767 16.0795 36.4261C16.9508 36.0758 17.6326 35.5928 18.125 34.9773C18.6174 34.3523 18.8684 33.6231 18.8778 32.7898C18.8684 32.0322 18.6458 31.4072 18.2102 30.9148C17.7746 30.4129 17.1638 29.9962 16.3778 29.6648C15.6013 29.3239 14.6922 29.0208 13.6506 28.7557L10.3409 27.9034C7.94508 27.2879 6.05114 26.3551 4.65909 25.1051C3.27652 23.8456 2.58523 22.1742 2.58523 20.0909C2.58523 18.3769 3.04924 16.8759 3.97727 15.5881C4.91477 14.3002 6.18845 13.3011 7.7983 12.5909C9.40814 11.8712 11.2311 11.5114 13.267 11.5114C15.3314 11.5114 17.1402 11.8712 18.6932 12.5909C20.2557 13.3011 21.482 14.2907 22.3722 15.5597C23.2623 16.8191 23.7216 18.268 23.75 19.9062H18.679ZM28.6186 41V19.1818H33.7607V41H28.6186ZM31.2038 16.0852C30.3894 16.0852 29.6887 15.8153 29.1016 15.2756C28.5144 14.7263 28.2209 14.0682 28.2209 13.3011C28.2209 12.5246 28.5144 11.8665 29.1016 11.3267C29.6887 10.7775 30.3894 10.5028 31.2038 10.5028C32.0277 10.5028 32.7285 10.7775 33.3061 11.3267C33.8932 11.8665 34.1868 12.5246 34.1868 13.3011C34.1868 14.0682 33.8932 14.7263 33.3061 15.2756C32.7285 15.8153 32.0277 16.0852 31.2038 16.0852ZM48.5369 49.6364C46.6903 49.6364 45.1042 49.3854 43.7784 48.8835C42.4527 48.3911 41.3873 47.7282 40.5824 46.8949C39.7775 46.0616 39.2188 45.1383 38.9062 44.125L43.5369 43.0028C43.7453 43.429 44.0483 43.8504 44.446 44.267C44.8438 44.6932 45.3788 45.0436 46.0511 45.3182C46.733 45.6023 47.59 45.7443 48.6222 45.7443C50.0805 45.7443 51.2879 45.3892 52.2443 44.679C53.2008 43.9782 53.679 42.8229 53.679 41.2131V37.0795H53.4233C53.1581 37.6098 52.7699 38.1544 52.2585 38.7131C51.7566 39.2718 51.089 39.7405 50.2557 40.1193C49.4318 40.4981 48.3949 40.6875 47.1449 40.6875C45.4688 40.6875 43.9489 40.2945 42.5852 39.5085C41.2311 38.7131 40.1515 37.5294 39.3466 35.9574C38.5511 34.3759 38.1534 32.3968 38.1534 30.0199C38.1534 27.6241 38.5511 25.6023 39.3466 23.9545C40.1515 22.2973 41.2358 21.0426 42.5994 20.1903C43.9631 19.3286 45.483 18.8977 47.1591 18.8977C48.4375 18.8977 49.4886 19.1155 50.3125 19.5511C51.1458 19.9773 51.8087 20.4934 52.3011 21.0994C52.7936 21.696 53.1676 22.2595 53.4233 22.7898H53.7074V19.1818H58.7784V41.3551C58.7784 43.2206 58.3333 44.7642 57.4432 45.9858C56.553 47.2074 55.3362 48.1212 53.7926 48.7273C52.2491 49.3333 50.4972 49.6364 48.5369 49.6364ZM48.5795 36.6534C49.6686 36.6534 50.5966 36.3883 51.3636 35.858C52.1307 35.3277 52.7131 34.5653 53.1108 33.571C53.5085 32.5767 53.7074 31.3835 53.7074 29.9915C53.7074 28.6184 53.5085 27.4157 53.1108 26.3835C52.7225 25.3513 52.1449 24.5511 51.3778 23.983C50.6203 23.4053 49.6875 23.1165 48.5795 23.1165C47.4337 23.1165 46.4773 23.4148 45.7102 24.0114C44.9432 24.608 44.3655 25.4271 43.9773 26.4688C43.589 27.5009 43.3949 28.6752 43.3949 29.9915C43.3949 31.3267 43.589 32.4962 43.9773 33.5C44.375 34.4943 44.9574 35.2708 45.7244 35.8295C46.5009 36.3788 47.4527 36.6534 48.5795 36.6534ZM69.1903 28.2159V41H64.0483V19.1818H68.9631V22.8892H69.2188C69.7206 21.6676 70.5208 20.697 71.6193 19.9773C72.7273 19.2576 74.0956 18.8977 75.7244 18.8977C77.2301 18.8977 78.5417 19.2197 79.6591 19.8636C80.786 20.5076 81.6572 21.4403 82.2727 22.6619C82.8977 23.8835 83.2055 25.3655 83.196 27.108V41H78.054V27.9034C78.054 26.4451 77.6752 25.304 76.9176 24.4801C76.1695 23.6562 75.1326 23.2443 73.8068 23.2443C72.9072 23.2443 72.107 23.4432 71.4062 23.8409C70.715 24.2292 70.1705 24.7926 69.7727 25.5312C69.3845 26.2699 69.1903 27.1648 69.1903 28.2159ZM94.7017 41.4403C93.3191 41.4403 92.0739 41.1941 90.9659 40.7017C89.8674 40.1998 88.9962 39.4612 88.3523 38.4858C87.7178 37.5104 87.4006 36.3078 87.4006 34.8778C87.4006 33.6468 87.6278 32.6288 88.0824 31.8239C88.5369 31.0189 89.1572 30.375 89.9432 29.892C90.7292 29.4091 91.6146 29.0445 92.5994 28.7983C93.5938 28.5426 94.6212 28.358 95.6818 28.2443C96.9602 28.1117 97.9972 27.9934 98.7926 27.8892C99.5881 27.7756 100.166 27.6051 100.526 27.3778C100.895 27.1411 101.08 26.7765 101.08 26.2841V26.1989C101.08 25.1288 100.762 24.3002 100.128 23.7131C99.4934 23.1259 98.5795 22.8324 97.3864 22.8324C96.1269 22.8324 95.1278 23.107 94.3892 23.6562C93.66 24.2055 93.1676 24.8542 92.9119 25.6023L88.1108 24.9205C88.4896 23.5947 89.1146 22.4867 89.9858 21.5966C90.857 20.697 91.9223 20.0246 93.1818 19.5795C94.4413 19.125 95.8333 18.8977 97.358 18.8977C98.4091 18.8977 99.4555 19.0208 100.497 19.267C101.539 19.5133 102.491 19.9205 103.352 20.4886C104.214 21.0473 104.905 21.8097 105.426 22.7756C105.956 23.7415 106.222 24.9489 106.222 26.3977V41H101.278V38.0028H101.108C100.795 38.6089 100.355 39.1771 99.7869 39.7074C99.2282 40.2282 98.5227 40.6496 97.6705 40.9716C96.8277 41.2841 95.8381 41.4403 94.7017 41.4403ZM96.0369 37.6619C97.0691 37.6619 97.964 37.4583 98.7216 37.0511C99.4792 36.6345 100.062 36.0852 100.469 35.4034C100.885 34.7216 101.094 33.9782 101.094 33.1733V30.6023C100.933 30.7348 100.658 30.858 100.27 30.9716C99.8911 31.0852 99.465 31.1847 98.9915 31.2699C98.518 31.3551 98.0492 31.4309 97.5852 31.4972C97.1212 31.5634 96.7188 31.6203 96.3778 31.6676C95.6108 31.7718 94.9242 31.9422 94.3182 32.179C93.7121 32.4157 93.2339 32.7472 92.8835 33.1733C92.5331 33.59 92.358 34.1297 92.358 34.7926C92.358 35.7396 92.7036 36.4545 93.3949 36.9375C94.0862 37.4205 94.9669 37.6619 96.0369 37.6619ZM120.881 49.6364C119.034 49.6364 117.448 49.3854 116.122 48.8835C114.796 48.3911 113.731 47.7282 112.926 46.8949C112.121 46.0616 111.562 45.1383 111.25 44.125L115.881 43.0028C116.089 43.429 116.392 43.8504 116.79 44.267C117.188 44.6932 117.723 45.0436 118.395 45.3182C119.077 45.6023 119.934 45.7443 120.966 45.7443C122.424 45.7443 123.632 45.3892 124.588 44.679C125.545 43.9782 126.023 42.8229 126.023 41.2131V37.0795H125.767C125.502 37.6098 125.114 38.1544 124.602 38.7131C124.1 39.2718 123.433 39.7405 122.599 40.1193C121.776 40.4981 120.739 40.6875 119.489 40.6875C117.812 40.6875 116.293 40.2945 114.929 39.5085C113.575 38.7131 112.495 37.5294 111.69 35.9574C110.895 34.3759 110.497 32.3968 110.497 30.0199C110.497 27.6241 110.895 25.6023 111.69 23.9545C112.495 22.2973 113.58 21.0426 114.943 20.1903C116.307 19.3286 117.827 18.8977 119.503 18.8977C120.781 18.8977 121.832 19.1155 122.656 19.5511C123.49 19.9773 124.152 20.4934 124.645 21.0994C125.137 21.696 125.511 22.2595 125.767 22.7898H126.051V19.1818H131.122V41.3551C131.122 43.2206 130.677 44.7642 129.787 45.9858C128.897 47.2074 127.68 48.1212 126.136 48.7273C124.593 49.3333 122.841 49.6364 120.881 49.6364ZM120.923 36.6534C122.012 36.6534 122.94 36.3883 123.707 35.858C124.474 35.3277 125.057 34.5653 125.455 33.571C125.852 32.5767 126.051 31.3835 126.051 29.9915C126.051 28.6184 125.852 27.4157 125.455 26.3835C125.066 25.3513 124.489 24.5511 123.722 23.983C122.964 23.4053 122.031 23.1165 120.923 23.1165C119.777 23.1165 118.821 23.4148 118.054 24.0114C117.287 24.608 116.709 25.4271 116.321 26.4688C115.933 27.5009 115.739 28.6752 115.739 29.9915C115.739 31.3267 115.933 32.4962 116.321 33.5C116.719 34.4943 117.301 35.2708 118.068 35.8295C118.845 36.3788 119.796 36.6534 120.923 36.6534ZM146.051 41.4261C143.864 41.4261 141.974 40.9716 140.384 40.0625C138.802 39.1439 137.585 37.8466 136.733 36.1705C135.881 34.4848 135.455 32.5009 135.455 30.2188C135.455 27.9744 135.881 26.0047 136.733 24.3097C137.595 22.6051 138.797 21.2794 140.341 20.3324C141.884 19.3759 143.698 18.8977 145.781 18.8977C147.126 18.8977 148.395 19.1155 149.588 19.5511C150.791 19.9773 151.851 20.6402 152.77 21.5398C153.698 22.4394 154.427 23.5852 154.957 24.9773C155.488 26.3598 155.753 28.0076 155.753 29.9205V31.4972H137.869V28.0312H150.824C150.814 27.0464 150.601 26.1705 150.185 25.4034C149.768 24.6269 149.186 24.0161 148.438 23.571C147.699 23.1259 146.837 22.9034 145.852 22.9034C144.801 22.9034 143.878 23.1591 143.082 23.6705C142.287 24.1723 141.667 24.8352 141.222 25.6591C140.786 26.4735 140.563 27.3684 140.554 28.3438V31.3693C140.554 32.6383 140.786 33.7273 141.25 34.6364C141.714 35.536 142.363 36.2273 143.196 36.7102C144.029 37.1837 145.005 37.4205 146.122 37.4205C146.87 37.4205 147.547 37.3163 148.153 37.108C148.759 36.8902 149.285 36.5729 149.73 36.1562C150.175 35.7396 150.511 35.2235 150.739 34.608L155.54 35.1477C155.237 36.4167 154.659 37.5246 153.807 38.4716C152.964 39.4091 151.884 40.1383 150.568 40.6591C149.252 41.1705 147.746 41.4261 146.051 41.4261Z" fill="#E4022C"/>
<rect x="161" width="12" height="12" fill="#E4022C"/>
</svg>
